<svg xmlns="http://www.w3.org/2000/svg" width="2606" height="1404" viewBox="0 0 2606 1404" version="1.1"><path d="M 1196.186 2.497 C 1194.554 3.870, 1192.965 6.008, 1192.655 7.247 C 1192.345 8.486, 1183.985 53.150, 1174.078 106.500 C 1164.170 159.850, 1155.612 205.088, 1155.058 207.028 C 1152.963 214.379, 1151.668 215.021, 1079.232 244.593 C 1041.685 259.922, 1011.154 272.922, 1011.385 273.482 C 1012.060 275.111, 1139.322 566.478, 1139.460 566.710 C 1139.529 566.825, 1143.166 565.776, 1147.543 564.379 C 1173.138 556.208, 1217.882 545.404, 1246 540.607 C 1280.717 534.683, 1320.420 534.480, 1353.500 540.059 C 1381.571 544.792, 1419.664 553.743, 1448.500 562.380 C 1456.750 564.852, 1463.783 566.565, 1464.128 566.187 C 1464.876 565.369, 1595 274.442, 1595 273.589 C 1595 273.265, 1594.574 273, 1594.054 273 C 1593.023 273, 1463.191 220.023, 1456.234 216.764 C 1453.888 215.664, 1451.041 213.462, 1449.906 211.869 C 1448.271 209.571, 1444.031 188.437, 1429.418 109.736 C 1419.284 55.156, 1410.746 9.430, 1410.445 8.122 C 1410.144 6.814, 1408.605 4.451, 1407.026 2.872 L 1404.154 0 1301.654 0 L 1199.153 0 1196.186 2.497 M 822.461 156.497 C 820.789 157.348, 787.658 189.873, 748.836 228.773 C 674.105 303.654, 675.542 302.034, 678.046 308.621 C 678.594 310.063, 704.570 348.425, 735.771 393.871 C 792.335 476.259, 792.500 476.515, 792.470 481.500 C 792.444 485.804, 788.223 496.316, 762.156 557 C 743.027 601.533, 730.915 628.504, 729.272 630.227 C 727.841 631.727, 725.282 633.397, 723.585 633.938 C 721.888 634.479, 679.100 642.592, 628.500 651.966 C 577.900 661.341, 534.365 669.503, 531.756 670.104 C 528.575 670.837, 526.187 672.177, 524.506 674.175 C 522.035 677.112, 522 677.404, 522 695.096 L 522 713.038 524.250 712.502 C 525.487 712.207, 555.975 704.813, 592 696.070 C 698.662 670.187, 697.299 670.458, 846 645.468 C 909.525 634.792, 964.269 625.117, 967.654 623.969 L 973.807 621.882 971.931 616.544 C 970.899 613.608, 949.542 516.097, 924.471 399.853 C 899.401 283.609, 878.576 188.205, 878.194 187.844 C 877.812 187.483, 867.216 180.135, 854.647 171.514 C 840.579 161.866, 830.585 155.669, 828.647 155.394 C 826.905 155.147, 824.144 155.639, 822.461 156.497 M 1772 155.679 C 1767.940 157.339, 1724.062 188.246, 1723.621 189.757 C 1723.340 190.716, 1702.829 285.775, 1678.039 401 C 1653.249 516.225, 1632.087 612.966, 1631.013 615.980 C 1629.939 618.995, 1629.385 621.766, 1629.780 622.140 C 1631.918 624.156, 1651.395 627.737, 1754.500 645.073 C 1904.402 670.277, 1906.186 670.634, 2016.423 697.450 C 2051.581 706.002, 2080.521 713, 2080.735 713 C 2080.949 713, 2080.983 704.710, 2080.812 694.578 C 2080.512 676.840, 2080.413 676.063, 2078.155 673.663 C 2076.866 672.291, 2074.824 670.922, 2073.618 670.619 C 2072.412 670.316, 2028.918 662.177, 1976.963 652.531 C 1925.008 642.885, 1881.405 634.740, 1880.067 634.431 C 1878.730 634.123, 1875.999 632.212, 1873.999 630.185 C 1870.955 627.100, 1865.453 615.025, 1840.182 555.976 C 1821.846 513.133, 1810 484.211, 1810 482.291 C 1810 480.553, 1810.415 478.039, 1810.922 476.706 C 1811.429 475.373, 1837.174 437.431, 1868.133 392.391 C 1920.982 315.506, 1924.447 310.202, 1924.817 305.620 L 1925.211 300.740 1852.836 228.344 C 1788.944 164.435, 1780.053 155.897, 1776.980 155.508 C 1775.066 155.265, 1772.825 155.342, 1772 155.679 M 910.456 188.250 L 906.942 191.500 980.097 438.438 C 1032.386 614.942, 1052.985 685.822, 1052.315 686.938 C 1051.800 687.797, 1041.056 693.744, 1028.439 700.152 L 1005.500 711.805 966 709.446 C 804.260 699.788, 799.855 699.578, 758.500 699.580 C 719.952 699.581, 703.284 700.459, 690.732 703.151 C 684.492 704.489, 678.552 709.645, 675.353 716.500 C 671.854 723.997, 672.085 724.627, 678.750 725.788 C 681.913 726.340, 697.437 728.975, 713.249 731.645 C 729.061 734.315, 741.998 736.734, 741.999 737.020 C 742 737.306, 674.163 739.647, 591.250 742.222 L 440.500 746.903 289.250 741.218 L 138 735.533 138 731.766 C 138 727.424, 135.226 723.987, 131.750 724.024 C 125.819 724.086, 115.994 730.445, 68.500 764.960 C 41 784.945, 16.131 803.049, 13.236 805.191 C 5.860 810.649, 2.582 815.913, 2.536 822.372 L 2.500 827.500 10.505 827.500 L 18.511 827.500 40.382 812.109 L 62.253 796.717 74.876 797.892 C 138.198 803.787, 310.788 819.438, 334.695 821.454 C 359.027 823.506, 371.163 824, 397.195 824.002 C 430.487 824.003, 478.993 824.614, 715 828.001 C 790.625 829.086, 874.775 830.248, 902 830.583 C 951.332 831.191, 956.127 831.474, 967.500 834.448 C 970.800 835.311, 981.951 836.555, 992.279 837.211 C 1008.543 838.246, 1010.974 838.613, 1010.430 839.953 C 1007.089 848.185, 1001.861 866.509, 1000.466 874.879 C 998.254 888.151, 998.843 904.937, 1001.945 917 C 1005.458 930.662, 1018.908 956.302, 1030.626 971.674 C 1048.425 995.022, 1077.253 1012.895, 1107 1019.026 C 1121.281 1021.969, 1141.485 1021.447, 1153.574 1017.823 L 1161.648 1015.402 1162.853 1034.574 C 1163.768 1049.132, 1163.781 1055.521, 1162.909 1061.123 C 1160.020 1079.689, 1168.011 1115.973, 1181.783 1146.816 C 1190.367 1166.041, 1200.109 1180.053, 1215.980 1196.003 C 1236.482 1216.607, 1257.985 1229.750, 1280.866 1235.664 C 1289.483 1237.891, 1291.925 1238.104, 1304 1237.678 C 1319.739 1237.123, 1327.539 1235.216, 1341.957 1228.401 C 1368.345 1215.928, 1397.181 1189.403, 1412.589 1163.430 C 1429.887 1134.273, 1442.918 1085.706, 1439.861 1061.788 C 1439.041 1055.371, 1439.045 1048.619, 1439.874 1036.160 C 1440.493 1026.856, 1441 1018.309, 1441 1017.166 C 1441 1015.149, 1441.124 1015.133, 1445.250 1016.615 C 1457.543 1021.031, 1477.557 1022.252, 1493.129 1019.537 C 1525.900 1013.822, 1559.112 992.243, 1576.556 965.331 C 1591.364 942.487, 1597.611 929.832, 1601.041 915.737 C 1605.784 896.238, 1604.329 876.129, 1596.440 852.154 C 1593.999 844.735, 1592.114 838.583, 1592.251 838.483 C 1592.388 838.383, 1600.825 837.793, 1611 837.171 C 1621.175 836.550, 1631.975 835.357, 1635 834.520 C 1645.998 831.478, 1651.330 831.154, 1700 830.572 C 1727.225 830.247, 1811.375 829.093, 1887 828.007 C 2120.367 824.658, 2172.359 824.004, 2205.595 824.002 C 2244.309 824, 2248.926 823.626, 2523.032 798.346 L 2540.564 796.729 2561.451 811.453 C 2572.938 819.552, 2583.416 826.588, 2584.734 827.089 C 2587.786 828.249, 2598.061 828.247, 2599.895 827.086 C 2602 825.753, 2600.683 818.637, 2597.332 813.234 C 2595.361 810.058, 2591.308 806.381, 2584 801.139 C 2578.225 796.997, 2557.750 782.145, 2538.500 768.134 C 2481.431 726.596, 2482.306 727.199, 2476.382 725.331 C 2471.408 723.763, 2470.559 723.737, 2468.167 725.074 C 2465.990 726.291, 2465.446 727.389, 2465.205 731.054 L 2464.909 735.543 2313.205 741.224 L 2161.500 746.905 2011.250 742.221 C 1928.613 739.644, 1861 737.301, 1861 737.014 C 1861 736.727, 1873.938 734.303, 1889.750 731.629 C 1905.563 728.954, 1921.088 726.321, 1924.250 725.776 C 1927.412 725.232, 1930 724.272, 1929.999 723.643 C 1929.997 721.146, 1924.077 710.336, 1921.265 707.696 C 1914.577 701.418, 1896.840 699.552, 1844 699.570 C 1803.403 699.583, 1793.035 700.078, 1636.500 709.476 L 1596.500 711.878 1575.672 701.189 C 1564.217 695.310, 1553.589 689.375, 1552.055 688 L 1549.265 685.500 1622.577 438.500 L 1695.888 191.500 1692.459 188.250 C 1688.174 184.190, 1682.857 183.741, 1680.597 187.250 C 1679.801 188.488, 1653.929 260.375, 1623.104 347 C 1517.630 643.410, 1514.344 652.511, 1512.881 652.313 C 1512.121 652.211, 1508.976 651.426, 1505.891 650.569 C 1498.693 648.570, 1477.459 646.195, 1459.225 645.349 L 1444.951 644.687 1441.944 639.094 C 1432.541 621.596, 1409.159 595.225, 1394.257 585.310 C 1378.814 575.034, 1353.787 565.271, 1330.256 560.342 C 1311.975 556.513, 1290.998 556.519, 1272.663 560.359 C 1248.885 565.338, 1223.345 575.298, 1207.717 585.688 C 1193.799 594.941, 1172.169 619.303, 1161.778 637.430 L 1157.606 644.707 1143.053 645.364 C 1124.035 646.222, 1103.991 648.575, 1095.401 650.957 C 1091.621 652.005, 1088.482 652.781, 1088.425 652.681 C 1088.367 652.581, 1080.326 630, 1070.556 602.500 C 985.969 364.423, 922.674 187.313, 921.804 186.264 C 919.766 183.809, 914.207 184.782, 910.456 188.250 M 1284 571.555 C 1269.114 574.752, 1250.217 582.790, 1236.913 591.584 C 1227.774 597.623, 1216.748 609.516, 1207.738 623.051 C 1193.560 644.348, 1186.807 660.272, 1185.487 675.521 C 1184.150 690.962, 1188.576 736.633, 1192.767 750.637 C 1194.372 756.004, 1194.916 756.696, 1199.192 758.823 C 1205.007 761.715, 1211.866 762.339, 1262.874 764.620 C 1299.128 766.240, 1303.382 766.240, 1339.874 764.619 C 1387.212 762.516, 1397.878 761.590, 1403.527 759.091 C 1407.550 757.312, 1408.012 756.703, 1409.849 750.752 C 1415.868 731.267, 1419.244 678.577, 1415.431 663.644 C 1410.919 645.975, 1391.059 613.641, 1376.201 599.774 C 1363.075 587.524, 1339.174 575.884, 1318.185 571.521 C 1309.227 569.659, 1292.753 569.675, 1284 571.555 M 690.500 763.153 L 445.500 770.943 295.196 765.373 L 144.893 759.802 141.196 762.388 C 139.163 763.810, 136.227 766, 134.671 767.256 L 131.842 769.538 258.671 778.898 L 385.500 788.258 626.500 790.538 C 759.050 791.793, 886.288 793.036, 909.250 793.301 L 951 793.783 951 782.957 C 951 773.581, 952.546 761.943, 954.449 756.992 C 954.940 755.714, 953.540 755.475, 945.264 755.424 C 939.894 755.391, 825.250 758.869, 690.500 763.153 M 1648.430 757.354 C 1650.775 765.617, 1652 774.574, 1652 783.460 L 1652 793.790 1693.250 793.306 C 1715.938 793.040, 1843.850 791.766, 1977.500 790.476 L 2220.500 788.130 2342 779.116 C 2408.825 774.158, 2465.230 769.966, 2467.344 769.801 L 2471.188 769.500 2464.565 764.649 L 2457.942 759.798 2309.721 765.375 L 2161.500 770.951 1923.500 763.507 C 1792.600 759.412, 1677.022 755.870, 1666.661 755.635 L 1647.821 755.208 1648.430 757.354 M 1046.133 851.002 C 1039.993 864.092, 1035.420 877.299, 1033.433 887.684 C 1031.599 897.269, 1031.622 914.554, 1033.481 923.325 C 1037.559 942.574, 1050.840 962.355, 1068.907 976.087 C 1077.077 982.298, 1095.019 991.220, 1105 994.037 C 1114.516 996.722, 1132.541 997.733, 1141.211 996.067 C 1147.442 994.870, 1161 989.348, 1161 988.008 C 1161 987.625, 1158.801 984.798, 1156.113 981.727 C 1145.606 969.720, 1132.931 951.623, 1126.097 938.870 C 1120.048 927.582, 1115.270 910.860, 1107.006 872.048 C 1105.313 864.099, 1103.816 857.483, 1103.678 857.345 C 1103.540 857.207, 1098.269 855.527, 1091.964 853.611 C 1081.660 850.480, 1056.946 842.224, 1052.917 840.565 C 1051.674 840.054, 1050.216 842.296, 1046.133 851.002 M 1539.500 844.211 C 1533.450 846.367, 1521.984 850.155, 1514.019 852.629 C 1506.055 855.104, 1499.394 857.273, 1499.217 857.450 C 1499.040 857.626, 1496.693 867.726, 1494.002 879.892 C 1488.134 906.413, 1483.697 923.326, 1480.617 930.904 C 1475.899 942.511, 1458.258 968.829, 1446.590 981.664 L 1440.987 987.829 1444.244 989.829 C 1454.083 995.874, 1472.465 998.489, 1487.767 996.022 C 1513.074 991.942, 1539.033 976.264, 1553.926 956.064 C 1571.567 932.139, 1575.551 904.585, 1565.794 874 C 1562.524 863.750, 1553.633 843.194, 1551.691 841.396 C 1550.812 840.582, 1547.619 841.319, 1539.500 844.211 M 522 867.865 C 522 883.414, 522.884 885.850, 529.266 887.888 C 531.045 888.457, 573.900 896.610, 624.500 906.007 C 675.100 915.405, 717.531 923.351, 718.792 923.666 C 724.680 925.136, 725.872 927.689, 756.883 1005.209 C 788.010 1083.022, 788.880 1085.609, 785.834 1091.316 C 785.193 1092.517, 760.743 1128.375, 731.502 1171 C 702.260 1213.625, 678.027 1249.734, 677.650 1251.242 C 677.241 1252.884, 677.534 1255.290, 678.382 1257.242 C 679.213 1259.157, 709.221 1289.875, 751.165 1331.750 L 822.533 1403 827.054 1403 C 831.388 1403, 834.789 1400.793, 909.311 1349.620 C 952.065 1320.262, 988.344 1295.981, 989.931 1295.664 C 991.518 1295.346, 994.197 1295.483, 995.886 1295.967 C 997.574 1296.452, 1014.725 1305.254, 1033.998 1315.527 C 1069.859 1334.643, 1070.845 1335.032, 1075.265 1331.793 C 1076.599 1330.817, 1153 1148.687, 1153 1146.485 C 1153 1146.241, 1151.088 1145.072, 1148.750 1143.888 C 1139.491 1139.197, 1020.090 1069.494, 1014 1065.224 C 1004.518 1058.577, 979.637 1033.117, 971.758 1022 C 968.054 1016.775, 963.039 1008.675, 960.613 1004 C 955.115 993.407, 919.654 914.996, 916.080 905.527 L 913.447 898.554 718.474 876.334 C 611.238 864.112, 523.163 854.087, 522.750 854.056 C 522.337 854.025, 522 860.239, 522 867.865 M 1884 876.354 C 1777.575 888.534, 1689.996 898.828, 1689.379 899.229 C 1688.763 899.630, 1688.003 901.205, 1687.692 902.729 C 1687.380 904.253, 1677.040 927.827, 1664.714 955.115 C 1641.172 1007.231, 1637.241 1014.508, 1623.338 1031.691 C 1613.979 1043.260, 1597.605 1058.949, 1587.866 1065.682 C 1578.114 1072.423, 1453.061 1145, 1451.197 1145 C 1450.241 1145, 1449.923 1145.746, 1450.237 1147.250 C 1451.246 1152.081, 1525.302 1329.615, 1527.073 1331.450 C 1530.880 1335.393, 1533.869 1334.254, 1568.812 1315.552 C 1587.133 1305.747, 1603.783 1297.162, 1605.812 1296.477 C 1607.840 1295.791, 1610.850 1295.438, 1612.500 1295.692 C 1614.330 1295.975, 1645.863 1316.984, 1693.377 1349.578 C 1768.595 1401.177, 1771.411 1403, 1775.869 1403 L 1780.485 1403 1852.742 1330.742 L 1925 1258.485 1925 1253.900 C 1925 1249.481, 1923.040 1246.459, 1870.832 1170.407 C 1838.989 1124.021, 1816.286 1090.013, 1815.746 1087.891 C 1815.181 1085.669, 1815.192 1082.979, 1815.775 1080.891 C 1818.004 1072.905, 1876.378 929.299, 1878.195 927.330 C 1879.296 926.137, 1881.391 924.699, 1882.849 924.134 C 1884.307 923.569, 1927.125 915.410, 1978 906.002 C 2028.875 896.594, 2071.997 888.424, 2073.827 887.846 C 2079.762 885.970, 2080.992 882.437, 2080.996 867.250 C 2081 855.257, 2080.834 854.010, 2079.250 854.104 C 2078.287 854.162, 1990.425 864.174, 1884 876.354 M 1278 998.432 C 1255.031 1002.542, 1235.174 1010.551, 1224.745 1019.911 C 1214.487 1029.119, 1202.011 1048.587, 1196.579 1063.865 C 1192.203 1076.171, 1190.680 1087.569, 1191.975 1098.320 C 1194.197 1116.776, 1201.142 1140.276, 1209.464 1157.500 C 1221.270 1181.934, 1244.810 1205.929, 1268.334 1217.508 C 1295.251 1230.757, 1319.402 1228.559, 1346.733 1210.374 C 1357.424 1203.260, 1372.251 1189.129, 1380.640 1178.057 C 1391.809 1163.317, 1401.911 1140.014, 1408.192 1114.500 C 1409.959 1107.326, 1410.411 1102.559, 1410.423 1091 C 1410.437 1077.767, 1410.192 1075.757, 1407.628 1068 C 1401.977 1050.906, 1388.787 1029.448, 1378.028 1019.845 C 1369.009 1011.794, 1350.973 1003.993, 1330.981 999.496 C 1320.843 997.215, 1288.438 996.565, 1278 998.432" stroke="none" fill="#e5e8e4" fill-rule="evenodd"/></svg>