<svg xmlns="http://www.w3.org/2000/svg" width="804" height="743" viewBox="0 0 804 743" version="1.1"><path d="M 392.264 87.718 C 393.784 87.947, 396.034 87.941, 397.264 87.704 C 398.494 87.467, 397.250 87.279, 394.500 87.286 C 391.750 87.294, 390.744 87.488, 392.264 87.718 M 407.264 87.718 C 408.784 87.947, 411.034 87.941, 412.264 87.704 C 413.494 87.467, 412.250 87.279, 409.500 87.286 C 406.750 87.294, 405.744 87.488, 407.264 87.718 M 388.752 118.846 L 369.500 138.215 388 137.554 L 406.500 136.894 423.765 119.697 L 441.030 102.500 436.765 101.741 C 434.419 101.324, 426.988 100.644, 420.252 100.230 L 408.004 99.477 388.752 118.846 M 366.500 101.683 C 359.587 102.565, 340.959 106.241, 333.924 108.111 L 326.348 110.125 312.438 124.063 L 298.527 138 316.524 138 L 334.520 138 353 119.500 C 363.164 109.325, 371.034 101.067, 370.490 101.150 C 369.945 101.232, 368.150 101.472, 366.500 101.683 M 454.468 123.032 L 439.525 138 458.030 138 L 476.536 138 486.967 127.533 C 492.705 121.776, 497.197 116.877, 496.949 116.647 C 496.421 116.154, 475.664 109.518, 471.955 108.656 C 469.714 108.135, 467.627 109.851, 454.468 123.032 M 148.473 118.250 L 141.500 125.500 148.750 118.527 C 155.484 112.050, 156.457 111, 155.723 111 C 155.571 111, 152.308 114.263, 148.473 118.250 M 159.473 131.250 L 152.500 138.500 159.750 131.527 C 166.484 125.050, 167.457 124, 166.723 124 C 166.571 124, 163.308 127.263, 159.473 131.250 M 515.960 132.541 L 510.568 138 525.534 137.968 C 542.536 137.932, 542.467 138.067, 529.041 131.082 L 521.351 127.081 515.960 132.541 M 33 151.763 C 33 152.182, 39.862 159.269, 48.250 167.513 L 63.500 182.500 48.515 167.253 L 33.530 152.006 212.515 151.750 L 391.500 151.494 212.250 151.247 C 113.662 151.111, 33 151.343, 33 151.763 M 502.250 151.750 C 551.613 151.893, 632.388 151.893, 681.750 151.750 C 731.113 151.607, 690.725 151.489, 592 151.489 C 493.275 151.489, 452.888 151.607, 502.250 151.750 M 85.616 203.812 C 85.340 204.258, 103.651 223.046, 126.307 245.562 L 167.500 286.500 126.545 245.290 L 85.590 204.080 95.045 203.748 L 104.500 203.415 95.309 203.208 C 90.254 203.093, 85.892 203.365, 85.616 203.812 M 703.784 203.738 C 706.689 203.941, 711.189 203.939, 713.784 203.734 C 716.378 203.528, 714 203.363, 708.500 203.365 C 703 203.368, 700.878 203.536, 703.784 203.738 M 718.469 223.250 L 712.500 229.500 718.750 223.531 C 722.188 220.249, 725 217.436, 725 217.281 C 725 216.542, 724.013 217.444, 718.469 223.250 M 168.982 245.250 C 178.718 255.235, 180 256.454, 180 255.732 C 180 255.585, 175.162 250.747, 169.250 244.982 L 158.500 234.500 168.982 245.250 M 650.500 291 C 642.869 298.676, 642.362 299, 637.970 299 C 634.082 299, 632.899 299.509, 630.117 302.379 L 626.842 305.758 628.940 314.629 C 630.094 319.508, 631.592 326.098, 632.269 329.273 L 633.500 335.047 649.366 319.146 L 665.232 303.245 662.087 293.123 C 660.357 287.555, 658.832 283, 658.697 283 C 658.563 283, 654.874 286.600, 650.500 291 M 144.594 291.903 C 141.422 295.152, 140.384 297.342, 138.406 304.960 C 135.874 314.707, 131.714 337.641, 132.208 339.125 C 132.371 339.614, 141.724 330.786, 152.993 319.507 L 173.482 299 166.957 299 L 160.432 299 155 293.500 C 152.013 290.475, 149.307 288, 148.987 288 C 148.667 288, 146.691 289.757, 144.594 291.903 M 652.853 349.750 L 636.229 366.500 635.642 379.500 C 635.320 386.650, 634.767 395.425, 634.415 399 L 633.774 405.500 653.856 385.500 L 673.937 365.500 672.994 353 C 671.911 338.644, 671.109 333, 670.151 333 C 669.781 333, 661.997 340.538, 652.853 349.750 M 149.594 357.905 L 129.782 377.737 130.936 391.618 C 132.715 413.003, 130.606 412.870, 150.635 392.865 L 168 375.521 168 367.367 C 168 362.882, 168.472 354.611, 169.049 348.988 C 169.626 343.365, 169.943 338.609, 169.753 338.419 C 169.563 338.229, 160.492 346.998, 149.594 357.905 M 680.360 371 C 680.360 376.225, 680.529 378.363, 680.735 375.750 C 680.941 373.137, 680.941 368.863, 680.735 366.250 C 680.529 363.637, 680.360 365.775, 680.360 371 M 743.365 371.500 C 743.368 377, 743.536 379.122, 743.738 376.216 C 743.941 373.311, 743.939 368.811, 743.734 366.216 C 743.528 363.622, 743.363 366, 743.365 371.500 M 645.892 427.750 C 624.790 448.987, 621.046 453.210, 619.512 457.500 C 616.190 466.795, 603.667 490.434, 596.203 501.500 C 570.345 539.832, 533.543 570.033, 491.265 587.615 L 482.030 591.455 457.273 616.228 C 440.169 633.342, 433.131 641, 434.508 640.999 C 437.744 640.996, 452.637 638.271, 465.147 635.391 L 476.795 632.709 569.956 539.544 L 663.117 446.379 665.496 436.940 C 667.553 428.782, 669.619 418.337, 671.567 406.250 C 671.855 404.462, 671.729 403, 671.288 403 C 670.846 403, 659.418 414.137, 645.892 427.750 M 154.238 423.262 C 145.857 431.656, 139 439.100, 139 439.804 C 139 442.019, 147.070 466, 147.816 466 C 148.206 466, 154.972 459.542, 162.851 451.650 L 177.176 437.299 174.670 426.900 C 173.292 421.180, 171.863 414.587, 171.495 412.250 C 171.126 409.913, 170.521 408, 170.150 408 C 169.779 408, 162.619 414.868, 154.238 423.262 M 171.646 476.854 L 157.818 490.708 160.303 495.604 C 161.670 498.297, 164.543 503.523, 166.689 507.218 L 170.590 513.936 184.212 500.218 L 197.834 486.500 192.167 474.775 C 189.050 468.326, 186.269 463.038, 185.987 463.025 C 185.704 463.011, 179.251 469.234, 171.646 476.854 M 323.500 505 C 331.736 513.250, 338.700 520, 338.975 520 C 339.250 520, 332.736 513.250, 324.500 505 C 316.264 496.750, 309.300 490, 309.025 490 C 308.750 490, 315.264 496.750, 323.500 505 M 198.161 521.317 L 184.823 534.704 189.546 540.602 C 192.145 543.846, 195.883 548.195, 197.855 550.267 L 201.439 554.034 214.629 540.871 L 227.819 527.708 221.659 520.222 C 218.272 516.104, 214.600 511.654, 213.500 510.332 L 211.500 507.930 198.161 521.317 M 587.496 557.141 C 558.716 586.008, 541.101 604.357, 543.500 602.971 C 574.597 585, 609.369 551.105, 630.156 518.500 C 635.805 509.639, 636.186 509, 635.805 509 C 635.633 509, 613.894 530.664, 587.496 557.141 M 558 528.500 C 555.571 530.975, 553.809 533, 554.084 533 C 554.359 533, 556.571 530.975, 559 528.500 C 561.429 526.025, 563.191 524, 562.916 524 C 562.641 524, 560.429 526.025, 558 528.500 M 561.469 532.250 L 555.500 538.500 561.750 532.531 C 565.188 529.249, 568 526.436, 568 526.281 C 568 525.542, 567.013 526.444, 561.469 532.250 M 375.500 557 C 383.736 565.250, 390.700 572, 390.975 572 C 391.250 572, 384.736 565.250, 376.500 557 C 368.264 548.750, 361.300 542, 361.025 542 C 360.750 542, 367.264 548.750, 375.500 557 M 232.125 558.375 L 218.966 571.561 222.733 575.145 C 224.805 577.117, 229.154 580.855, 232.398 583.454 L 238.296 588.177 251.706 574.839 L 265.116 561.500 261.368 558.500 C 259.307 556.850, 254.845 553.180, 251.452 550.345 L 245.283 545.189 232.125 558.375 M 272.735 588.764 L 258.991 602.535 269.245 608.220 C 274.885 611.347, 280.176 614.157, 281.002 614.465 C 282.002 614.837, 287.180 610.305, 296.502 600.900 C 304.879 592.448, 309.987 586.583, 309.222 586.295 C 308.199 585.911, 288.960 576.376, 286.990 575.278 C 286.709 575.121, 280.295 581.190, 272.735 588.764 M 321.660 610.840 L 306.857 625.668 312.178 627.669 C 315.105 628.770, 321.230 630.734, 325.790 632.034 L 334.080 634.396 349.540 618.960 C 358.043 610.470, 365 603.181, 365 602.762 C 365 602.343, 364.212 601.996, 363.250 601.991 C 361.604 601.982, 341.550 597.627, 338.067 596.521 C 336.977 596.175, 331.717 600.766, 321.660 610.840 M 424.500 604.038 C 421.200 604.448, 413.770 604.832, 407.989 604.891 L 397.479 605 380.144 622.356 C 367.393 635.122, 363.223 639.872, 364.375 640.314 C 365.237 640.644, 372.736 641.464, 381.041 642.134 L 396.140 643.354 416.317 623.177 C 438.566 600.928, 437.949 602.370, 424.500 604.038 M 398.750 711.723 C 400.538 711.945, 403.462 711.945, 405.250 711.723 C 407.038 711.502, 405.575 711.320, 402 711.320 C 398.425 711.320, 396.962 711.502, 398.750 711.723" stroke="none" fill="#fdcb0a" fill-rule="evenodd"/><path d="M 384.500 13.600 C 332.219 16.822, 285.474 29.151, 241.320 51.365 C 205.279 69.497, 175.091 91.790, 145.500 122.123 L 130.500 137.500 141.357 137.785 L 152.214 138.070 160.357 130.282 C 188.605 103.268, 214.593 84.529, 245.747 68.710 C 282.558 50.019, 316.985 39.365, 360.109 33.321 C 377.651 30.862, 425.199 30.858, 443.381 33.314 C 485.027 38.939, 517.299 48.674, 553.500 66.532 C 588.197 83.648, 616.332 103.633, 642.705 129.896 L 650.910 138.066 662.146 137.783 L 673.383 137.500 659.318 123 C 598.944 60.758, 522.451 23.572, 437.253 15.048 C 425.854 13.907, 393.793 13.027, 384.500 13.600 M 386 88.042 C 338.102 90.663, 289.128 106.382, 250.277 131.604 L 240.500 137.951 244.692 137.976 C 248.024 137.995, 250.691 136.899, 257.694 132.633 C 289.593 113.199, 324.556 100.830, 364.500 94.848 C 376.518 93.048, 427.262 93.009, 439 94.790 C 479.717 100.970, 515.176 113.487, 546.030 132.572 C 553.172 136.991, 555.613 137.996, 559.152 137.979 L 563.500 137.957 556.500 133.408 C 516.991 107.731, 468.034 91.147, 424 88.526 C 404.910 87.389, 399.240 87.317, 386 88.042 M 48.500 167 L 63.475 182 212.237 182 L 361 182 361 361.763 L 361 541.525 376 556.500 L 391 571.475 391 361.737 L 391 152 212.263 152 L 33.525 152 48.500 167 M 413 361.737 L 413 571.475 428 556.500 L 443 541.525 443 361.763 L 443 182 591.763 182 L 740.525 182 755.500 167 L 770.475 152 591.737 152 L 413 152 413 361.737 M 126.500 245 L 167.491 286 227.245 286 L 287 286 287 271 L 287 256 233.267 256 L 179.534 256 169.267 245.768 C 163.620 240.140, 159 235.190, 159 234.768 C 159 234.346, 192.750 234, 234 234 L 309 234 309 361.763 L 309 489.525 324 504.500 L 339 519.475 339 361.737 L 339 204 212.255 204 L 85.509 204 126.500 245 M 465 361.737 L 465 519.475 480 504.500 L 495 489.525 495 361.763 L 495 234 570.233 234 L 645.466 234 634.500 245 L 623.534 256 570.267 256 L 517 256 517 271 L 517 286 576.755 286 L 636.509 286 677.500 245 L 718.491 204 591.745 204 L 465 204 465 361.737 M 73.435 229.250 C 59.131 263.109, 50.186 297.532, 45.825 335.500 C 43.937 351.940, 44.230 393.357, 46.359 411 C 56.408 494.260, 91.269 566.471, 149.444 624.530 C 200.670 675.653, 265.298 709.832, 335.500 722.927 C 374.504 730.203, 416.842 730.916, 456.292 724.962 C 599.437 703.359, 716.475 595.347, 749.899 454 C 756.790 424.857, 759.366 401.845, 759.301 370 C 759.203 322.044, 750.127 276.302, 732.366 234.246 C 729.870 228.336, 727.318 222.263, 726.695 220.750 C 726.071 219.238, 725.309 218, 724.999 218 C 724.690 218, 721.828 220.637, 718.638 223.861 L 712.838 229.722 716.832 239.111 C 740.816 295.500, 748.881 358.838, 739.930 420.500 C 731.257 480.242, 706.827 536.244, 668.677 583.834 C 637.719 622.453, 598.682 653.682, 553.500 675.973 C 510.190 697.341, 468.208 708.296, 419.484 710.945 C 343.979 715.050, 267.438 693.148, 205.512 649.717 C 174.270 627.807, 144.660 598.303, 122.216 566.723 C 55.798 473.270, 41.739 349.597, 85.414 243.001 L 90.945 229.503 85.254 223.751 C 82.124 220.588, 79.253 218, 78.875 218 C 78.497 218, 76.049 223.063, 73.435 229.250 M 132.159 283.164 C 115.599 334.860, 113.812 389.208, 126.969 441 C 152.978 543.384, 234.128 623.107, 337.087 647.424 C 359.534 652.726, 374.554 654.348, 401.500 654.383 C 435.474 654.426, 458.246 651.004, 488.306 641.339 C 593.902 607.386, 670.137 515.240, 683.421 405.500 C 688.477 363.737, 684.211 320.516, 671.251 282.179 C 668.503 274.050, 668.397 273.904, 666.647 275.838 C 664.920 277.746, 664.947 278.108, 667.406 285.891 C 692.141 364.193, 681.454 450.662, 638.656 518.500 C 598.275 582.507, 533.433 628.411, 462.216 643.407 C 438.543 648.392, 428.138 649.416, 401.500 649.383 C 374.681 649.349, 359.506 647.721, 337.500 642.520 C 298.204 633.232, 259.286 614.168, 227 588.390 C 216.056 579.653, 193.320 556.912, 184.617 546 C 125.959 472.445, 108.072 375.756, 136.427 285.500 C 138.886 277.669, 138.900 277.460, 137.059 275.617 C 135.218 273.774, 135.115 273.933, 132.159 283.164 M 185.897 301.750 C 183.711 307.453, 179.975 322.782, 177.811 334.919 C 174.836 351.610, 174.551 387.443, 177.258 404.500 C 187.605 469.710, 224.125 526.232, 279 561.967 C 299.355 575.223, 329.557 587.828, 353.040 592.869 C 364.997 595.435, 384.332 598, 391.726 598 L 397.349 598 395.188 595.700 C 393.317 593.709, 391.378 593.236, 380.763 592.181 C 312.921 585.436, 253.818 549.645, 215.999 492.404 C 181.392 440.024, 171.007 372.989, 188.008 311.719 C 191.560 298.919, 191.554 299, 188.975 299 C 187.689 299, 186.566 300.002, 185.897 301.750 M 613.575 303.750 C 616.459 313.008, 620.022 328.646, 621.722 339.500 C 624.116 354.798, 624.087 388.296, 621.666 403.663 C 615.616 442.054, 602.063 474.168, 578.899 505 C 541.090 555.324, 482.598 587.517, 419.799 592.567 C 412.277 593.172, 410.786 593.607, 408.799 595.773 L 406.500 598.279 417 597.663 C 451.850 595.616, 488.595 584.004, 519.500 565.269 C 545.976 549.220, 572.686 523.749, 589.922 498.116 C 626.181 444.191, 637.702 378.601, 621.941 315.828 C 617.944 299.910, 617.545 299, 614.573 299 L 612.096 299 613.575 303.750" stroke="none" fill="#ffffff" fill-rule="evenodd"/><path d="M 371.500 0.621 C 296.722 8.134, 234.235 32.059, 177.500 74.899 C 157.271 90.174, 130.924 115.196, 117.240 132.128 L 112.500 137.993 56.005 137.996 L -0.489 138 33.932 172.432 L 68.353 206.864 64.262 215.682 C 34.501 279.834, 23.869 353.425, 34.095 424.500 C 43.503 489.889, 70.115 551.344, 111.606 603.500 C 122.821 617.597, 155.279 650.072, 169.500 661.423 C 257.498 731.666, 372.238 758.297, 482.505 734.071 C 591.092 710.214, 684.631 637.150, 734.416 537.301 C 784.563 436.725, 786.680 321.182, 740.280 217.170 L 735.671 206.839 770.331 172.170 L 804.990 137.500 748.245 137.746 L 691.500 137.993 681 125.843 C 658.268 99.539, 626.930 73.044, 596.619 54.499 C 551.878 27.126, 504.085 10.205, 449.500 2.409 C 438.979 0.907, 381.722 -0.406, 371.500 0.621 M 377 14.051 C 300.562 19.639, 231.353 47.512, 172.325 96.480 C 161.368 105.569, 133.821 132.598, 131.948 136.097 C 130.975 137.915, 131.432 138, 142.237 138 L 153.544 138 162.022 129.413 C 178.847 112.373, 202.491 93.851, 224.235 80.678 C 356.768 0.385, 528.589 19.407, 638.968 126.593 L 650.785 138.068 662.143 137.784 L 673.500 137.500 654 117.975 C 634.812 98.763, 620.227 86.532, 601.259 73.746 C 553.193 41.345, 495.906 20.733, 438.015 15.010 C 422.666 13.493, 391.367 13.001, 377 14.051 M 379.500 88.122 C 334.038 91.594, 287.868 107.193, 248.500 132.381 L 240.500 137.500 244.707 137.805 C 248.401 138.074, 250.414 137.223, 261.207 130.835 C 291.382 112.973, 325.081 101.212, 363 95.308 C 371.982 93.910, 380.520 93.518, 402 93.518 C 423.480 93.518, 432.018 93.910, 441 95.308 C 480.912 101.523, 513.630 113.262, 546.633 133.211 C 553.615 137.431, 555.383 138.082, 559.133 137.813 L 563.500 137.500 553.500 131.179 C 539.783 122.508, 514.949 110.287, 499.433 104.573 C 461.806 90.716, 420.220 85.012, 379.500 88.122 M 388.752 118.846 L 369.500 138.215 388 137.554 L 406.500 136.894 423.765 119.697 L 441.030 102.500 436.765 101.741 C 434.419 101.324, 426.988 100.644, 420.252 100.230 L 408.004 99.477 388.752 118.846 M 366.500 101.683 C 359.587 102.565, 340.959 106.241, 333.924 108.111 L 326.348 110.125 312.438 124.063 L 298.527 138 316.524 138 L 334.520 138 353 119.500 C 363.164 109.325, 371.034 101.067, 370.490 101.150 C 369.945 101.232, 368.150 101.472, 366.500 101.683 M 454.468 123.032 L 439.525 138 458.030 138 L 476.536 138 486.967 127.533 C 492.705 121.776, 497.197 116.877, 496.949 116.647 C 496.421 116.154, 475.664 109.518, 471.955 108.656 C 469.714 108.135, 467.627 109.851, 454.468 123.032 M 515.960 132.541 L 510.568 138 525.534 137.968 C 542.536 137.932, 542.467 138.067, 529.041 131.082 L 521.351 127.081 515.960 132.541 M 33 151.763 C 33 152.182, 39.641 159.155, 47.759 167.259 L 62.518 181.993 211.509 182.247 L 360.500 182.500 360.753 362.515 L 361.005 542.530 376.003 557.503 L 391 572.475 391 361.737 L 391 151 212 151 C 113.550 151, 33 151.343, 33 151.763 M 413 361.237 L 413 571.475 428 556.500 L 443 541.525 443 361.763 L 443 182 591.762 182 L 740.524 182 756 166.500 L 771.476 151 592.238 151 L 413 151 413 361.237 M 85.377 203.956 C 85.126 204.207, 103.274 222.769, 125.706 245.206 L 166.491 286 226.745 286 L 287 286 287 271 L 287 256 249.250 255.873 C 228.488 255.803, 204.525 255.836, 196 255.946 L 180.500 256.145 169.511 245.066 L 158.521 233.987 233.511 234.244 L 308.500 234.500 308.754 362.516 L 309.008 490.533 324.004 505.504 L 339 520.475 339 362.237 L 339 204 297.750 203.990 C 275.063 203.984, 218.100 203.872, 171.166 203.740 C 124.233 203.608, 85.628 203.705, 85.377 203.956 M 506.750 203.761 L 465 204.022 465 361.748 L 465 519.475 480 504.500 L 495 489.525 495 361.763 L 495 234 570.250 234.012 L 645.500 234.023 634.303 245.120 L 623.105 256.217 607.803 255.979 C 599.386 255.848, 575.513 255.799, 554.750 255.870 L 517 256 517 271 L 517 286 576.755 286 L 636.509 286 677.255 245.245 C 699.665 222.830, 718 204.268, 718 203.995 C 718 203.473, 577.709 203.317, 506.750 203.761 M 74.105 227.275 C 60.004 260.083, 51.851 289.809, 46.889 326.500 C 43.979 348.020, 43.698 390.312, 46.322 412 C 53.616 472.306, 75.756 530.491, 109.277 577.453 C 133.060 610.774, 164.704 642.337, 196.771 664.724 C 278.178 721.555, 377.425 741.641, 476.787 721.394 C 520.421 712.502, 567.180 692.353, 605 666.142 C 631.295 647.919, 661.176 620.173, 680.572 595.969 C 756.682 500.993, 779.571 375.276, 741.878 259.261 C 738.071 247.544, 729.658 226.107, 726.374 219.757 L 724.816 216.744 718.908 222.591 C 715.659 225.806, 713 228.972, 713 229.625 C 713 230.279, 714.321 233.758, 715.936 237.356 C 727.004 262.026, 736.098 295.178, 740.664 327.500 C 743.245 345.771, 743.262 396.773, 740.694 415 C 735.138 454.439, 725.284 486.560, 708.024 521.500 C 679.577 579.086, 636.279 626.748, 582 660.224 C 540.221 685.990, 497.890 701.024, 445.500 708.700 C 428.254 711.227, 375.864 711.198, 358 708.652 C 303.284 700.853, 256.096 683.208, 212.570 654.272 C 131.819 600.590, 77.915 515.666, 64.029 420.256 C 55.163 359.332, 63.371 295.003, 87.146 239.084 L 91.150 229.668 84.825 223.359 L 78.500 217.051 74.105 227.275 M 134.180 276.504 C 130.208 285.222, 123.224 314.006, 120.351 333.500 C 118.169 348.306, 117.848 390.380, 119.805 405 C 122.741 426.934, 128.495 450.562, 135.602 469.871 C 141.438 485.725, 155.157 512.567, 164.802 527 C 177.583 546.126, 185.233 555.383, 202.428 572.530 C 246.378 616.358, 300.707 643.391, 363.500 652.678 C 380.469 655.187, 423.535 655.187, 440.500 652.677 C 510.200 642.366, 571.738 608.789, 616.766 556.500 C 681.975 480.775, 702.513 378.915, 671.864 283.235 C 668.936 274.093, 667.788 272.803, 665.628 276.228 C 664.886 277.403, 665.478 280.614, 667.827 288.168 C 675.911 314.165, 679.004 334.069, 679.688 364.500 C 680.284 391.014, 679.018 406.668, 674.535 428.251 C 652.367 534.968, 568.735 619.695, 462.500 643.063 C 441.608 647.658, 425.928 649.294, 402.500 649.320 C 379.837 649.346, 367.609 648.250, 347.866 644.423 C 312.775 637.619, 278.687 623.645, 249.164 603.958 C 230.200 591.313, 220.272 583.264, 205.430 568.504 C 138.175 501.619, 109.973 406.353, 129.654 312.539 C 131.034 305.960, 133.726 295.422, 135.636 289.121 C 139.031 277.920, 139.067 277.622, 137.234 275.790 C 135.402 273.957, 135.333 273.973, 134.180 276.504 M 650.500 291 C 642.869 298.676, 642.362 299, 637.970 299 C 634.082 299, 632.899 299.509, 630.117 302.379 L 626.842 305.758 628.940 314.629 C 630.094 319.508, 631.592 326.098, 632.269 329.273 L 633.500 335.047 649.366 319.146 L 665.232 303.245 662.087 293.123 C 660.357 287.555, 658.832 283, 658.697 283 C 658.563 283, 654.874 286.600, 650.500 291 M 144.594 291.903 C 141.422 295.152, 140.384 297.342, 138.406 304.960 C 135.874 314.707, 131.714 337.641, 132.208 339.125 C 132.371 339.614, 141.724 330.786, 152.993 319.507 L 173.482 299 166.957 299 L 160.432 299 155 293.500 C 152.013 290.475, 149.307 288, 148.987 288 C 148.667 288, 146.691 289.757, 144.594 291.903 M 184.163 306.250 C 176.879 331.064, 174.644 348.738, 175.280 376.500 C 176.122 413.283, 182.545 439.563, 198.621 472 C 224.643 524.508, 269.407 564.614, 324.500 584.783 C 345.024 592.297, 373.615 598, 390.762 598 L 398.455 598 395.977 595.568 C 393.806 593.436, 392.020 592.995, 381.500 591.993 C 309.852 585.170, 248.545 546.343, 210.985 484.003 C 183.850 438.965, 173.952 381.965, 184.107 329.212 C 185.859 320.106, 189.622 305.692, 191.536 300.750 C 192.088 299.325, 191.665 299, 189.253 299 C 186.439 299, 186.185 299.361, 184.163 306.250 M 612.472 300.750 C 614.572 306.105, 620.115 330.252, 621.608 340.550 C 623.931 356.579, 623.918 387.315, 621.581 402.500 C 614.319 449.677, 593.975 491.355, 562.097 524.360 C 523.963 563.841, 476.241 586.968, 422.500 592.010 C 411.966 592.999, 410.197 593.433, 408.023 595.568 L 405.545 598 413.023 597.980 C 428.960 597.939, 453.267 593.462, 473.414 586.858 C 487.880 582.117, 514.152 569.403, 526.173 561.327 C 561.482 537.605, 587.827 507.642, 606.030 470.500 C 622.606 436.678, 629.921 402.188, 628.705 363.586 C 628.081 343.779, 626.539 332.748, 621.841 314.500 C 618.100 299.969, 617.632 299, 614.358 299 C 612.314 299, 611.927 299.359, 612.472 300.750 M 652.853 349.750 L 636.229 366.500 635.642 379.500 C 635.320 386.650, 634.767 395.425, 634.415 399 L 633.774 405.500 653.856 385.500 L 673.937 365.500 672.994 353 C 671.911 338.644, 671.109 333, 670.151 333 C 669.781 333, 661.997 340.538, 652.853 349.750 M 149.594 357.905 L 129.782 377.737 130.936 391.618 C 132.715 413.003, 130.606 412.870, 150.635 392.865 L 168 375.521 168 367.367 C 168 362.882, 168.472 354.611, 169.049 348.988 C 169.626 343.365, 169.943 338.609, 169.753 338.419 C 169.563 338.229, 160.492 346.998, 149.594 357.905 M 645.892 427.750 C 624.790 448.987, 621.046 453.210, 619.512 457.500 C 616.190 466.795, 603.667 490.434, 596.203 501.500 C 570.345 539.832, 533.543 570.033, 491.265 587.615 L 482.030 591.455 457.273 616.228 C 440.169 633.342, 433.131 641, 434.508 640.999 C 437.744 640.996, 452.637 638.271, 465.147 635.391 L 476.795 632.709 569.956 539.544 L 663.117 446.379 665.496 436.940 C 667.553 428.782, 669.619 418.337, 671.567 406.250 C 671.855 404.462, 671.729 403, 671.288 403 C 670.846 403, 659.418 414.137, 645.892 427.750 M 154.238 423.262 C 145.857 431.656, 139 439.100, 139 439.804 C 139 442.019, 147.070 466, 147.816 466 C 148.206 466, 154.972 459.542, 162.851 451.650 L 177.176 437.299 174.670 426.900 C 173.292 421.180, 171.863 414.587, 171.495 412.250 C 171.126 409.913, 170.521 408, 170.150 408 C 169.779 408, 162.619 414.868, 154.238 423.262 M 171.646 476.854 L 157.818 490.708 160.303 495.604 C 161.670 498.297, 164.543 503.523, 166.689 507.218 L 170.590 513.936 184.212 500.218 L 197.834 486.500 192.167 474.775 C 189.050 468.326, 186.269 463.038, 185.987 463.025 C 185.704 463.011, 179.251 469.234, 171.646 476.854 M 198.161 521.317 L 184.823 534.704 189.546 540.602 C 192.145 543.846, 195.883 548.195, 197.855 550.267 L 201.439 554.034 214.629 540.871 L 227.819 527.708 221.659 520.222 C 218.272 516.104, 214.600 511.654, 213.500 510.332 L 211.500 507.930 198.161 521.317 M 587.496 557.141 C 558.716 586.008, 541.101 604.357, 543.500 602.971 C 574.597 585, 609.369 551.105, 630.156 518.500 C 635.805 509.639, 636.186 509, 635.805 509 C 635.633 509, 613.894 530.664, 587.496 557.141 M 232.125 558.375 L 218.966 571.561 222.733 575.145 C 224.805 577.117, 229.154 580.855, 232.398 583.454 L 238.296 588.177 251.706 574.839 L 265.116 561.500 261.368 558.500 C 259.307 556.850, 254.845 553.180, 251.452 550.345 L 245.283 545.189 232.125 558.375 M 272.735 588.764 L 258.991 602.535 269.245 608.220 C 274.885 611.347, 280.176 614.157, 281.002 614.465 C 282.002 614.837, 287.180 610.305, 296.502 600.900 C 304.879 592.448, 309.987 586.583, 309.222 586.295 C 308.199 585.911, 288.960 576.376, 286.990 575.278 C 286.709 575.121, 280.295 581.190, 272.735 588.764 M 321.660 610.840 L 306.857 625.668 312.178 627.669 C 315.105 628.770, 321.230 630.734, 325.790 632.034 L 334.080 634.396 349.540 618.960 C 358.043 610.470, 365 603.181, 365 602.762 C 365 602.343, 364.212 601.996, 363.250 601.991 C 361.604 601.982, 341.550 597.627, 338.067 596.521 C 336.977 596.175, 331.717 600.766, 321.660 610.840 M 424.500 604.038 C 421.200 604.448, 413.770 604.832, 407.989 604.891 L 397.479 605 380.144 622.356 C 367.393 635.122, 363.223 639.872, 364.375 640.314 C 365.237 640.644, 372.736 641.464, 381.041 642.134 L 396.140 643.354 416.317 623.177 C 438.566 600.928, 437.949 602.370, 424.500 604.038" stroke="none" fill="#231f20" fill-rule="evenodd"/></svg>