<?xml version="1.0" encoding="UTF-8"?>
<!DOCTYPE svg PUBLIC "-//W3C//DTD SVG 1.1//EN" "http://www.w3.org/Graphics/SVG/1.1/DTD/svg11.dtd">
<!-- Creator: CorelDRAW X7 -->
<svg xmlns="http://www.w3.org/2000/svg" xml:space="preserve" width="220mm" height="220mm" version="1.1" style="shape-rendering:geometricPrecision; text-rendering:geometricPrecision; image-rendering:optimizeQuality; fill-rule:evenodd; clip-rule:evenodd" viewBox="0 0 22000 22000" xmlns:xlink="http://www.w3.org/1999/xlink">
 <defs>
  <style type="text/css">
   <![CDATA[
    .str4 {stroke:#373435;stroke-width:100}
    .str2 {stroke:#373435;stroke-width:50}
    .str3 {stroke:#373435;stroke-width:25}
    .str1 {stroke:#373435;stroke-width:20}
    .str0 {stroke:#373435;stroke-width:7.62}
    .fil4 {fill:none}
    .fil0 {fill:#606062}
    .fil5 {fill:#4B4B4D}
    .fil3 {fill:#282829}
    .fil1 {fill:#4B4B4D}
    .fil2 {fill:#BDBFC1}
    .fil6 {fill:white;fill-rule:nonzero}
   ]]>
  </style>
 </defs>
 <g id="Layer_x0020_1">
  <metadata id="CorelCorpID_0Corel-Layer"/>
  <circle class="fil0" cx="10989" cy="10980" r="7011"/>
  <g id="_2898327130976">
   <path class="fil1 str0" d="M9389 6151c0,883 716,1600 1600,1600 884,0 1600,-717 1600,-1600l0 -500c0,883 -716,1600 -1600,1600 -884,0 -1600,-717 -1600,-1600l0 500z"/>
   <ellipse class="fil2 str0" transform="matrix(4.49043E-014 1.69549 1.8233 -4.82892E-014 10989 5650.51)" rx="944" ry="878"/>
   <path class="fil3 str1" d="M9801 5124c-37,83 -65,170 -84,259l71 15c-17,82 -26,166 -26,253 0,1 0,2 0,3l-73 0c0,91 10,182 28,271l72 -15c19,85 46,166 81,244l-69 30c37,84 83,163 136,236l62 -45c51,69 109,133 172,190l-52 58c68,61 141,114 220,160l40 -69c73,42 151,77 233,103l-25 77c87,28 176,47 266,57l9 -81c41,4 83,6 125,6 44,0 87,-2 129,-7l9 82c90,-10 179,-29 266,-57l-25 -78c81,-26 159,-61 233,-103l40 70c79,-46 152,-99 220,-160l-54 -60c63,-57 121,-121 171,-190l65 47c53,-73 99,-152 136,-236l-72 -32c35,-77 62,-158 80,-243l76 16c19,-89 28,-180 28,-271l-77 0c0,-1 0,-2 0,-3 0,-86 -9,-171 -26,-252l75 -16c-19,-89 -47,-176 -84,-259l-70 31c-35,-79 -78,-153 -128,-222l62 -45c-54,-74 -115,-142 -182,-203l-51 57c-63,-57 -132,-108 -207,-151l38 -66c-79,-45 -162,-83 -248,-111l-23 72c-81,-26 -164,-44 -251,-53l8 -75c-90,-10 -181,-10 -272,0l8 74c-87,9 -170,27 -251,53l-23 -71c-86,28 -169,66 -248,111l37 64c-75,43 -144,94 -208,151l-49 -55c-67,61 -128,129 -182,203l59 43c-50,69 -94,143 -129,222l-66 -29z"/>
   <path class="fil1" d="M9801 5124c-37,83 -65,170 -84,259l71 15c-17,82 -26,166 -26,253 0,1 0,2 0,3l-73 0c0,91 10,182 28,271l69 -14 2 -13 -71 -15c19,-89 47,-176 84,-259l66 29c35,-79 79,-153 129,-222l-59 -43c54,-74 115,-142 182,-203l49 55c64,-57 133,-108 208,-151l-37 -64c79,-45 162,-83 248,-111l23 71c81,-26 164,-44 251,-53l-8 -74c91,-10 182,-10 272,0l-8 75c87,9 170,27 251,53l23 -72c86,28 169,66 248,111l-38 66c75,43 144,94 207,151l51 -57c67,61 128,129 182,203l-62 45c50,69 93,143 128,222l70 -31c37,83 65,170 84,259l-75 16 2 11 73 15c19,-89 28,-180 28,-271l-77 0c0,-1 0,-2 0,-3 0,-86 -9,-171 -26,-252l75 -16c-19,-89 -47,-176 -84,-259l-70 31c-35,-79 -78,-153 -128,-222l62 -45c-54,-74 -115,-142 -182,-203l-51 57c-63,-57 -132,-108 -207,-151l38 -66c-79,-45 -162,-83 -248,-111l-23 72c-81,-26 -164,-44 -251,-53l8 -75c-90,-10 -181,-10 -272,0l8 74c-87,9 -170,27 -251,53l-23 -71c-86,28 -169,66 -248,111l37 64c-75,43 -144,94 -208,151l-49 -55c-67,61 -128,129 -182,203l59 43c-50,69 -94,143 -129,222l-66 -29z"/>
   <line class="fil4 str0" x1="10587" y1="4414" x2="10587" y2="4914"/>
   <line class="fil4 str0" x1="10339" y1="4525" x2="10339" y2="5025"/>
   <line class="fil4 str0" x1="10119" y1="4685" x2="10119" y2="5185"/>
   <line class="fil4 str0" x1="9937" y1="4888" x2="9937" y2="5388"/>
   <line class="fil4 str0" x1="9801" y1="5124" x2="9801" y2="5624"/>
   <line class="fil4 str0" x1="9717" y1="5383" x2="9717" y2="5883"/>
   <line class="fil4 str0" x1="10610" y1="4485" x2="10610" y2="4985"/>
   <line class="fil4 str0" x1="10861" y1="4432" x2="10861" y2="4932"/>
   <line class="fil4 str0" x1="11117" y1="4433" x2="11117" y2="4933"/>
   <line class="fil4 str0" x1="11368" y1="4486" x2="11368" y2="4986"/>
   <line class="fil4 str0" x1="11391" y1="4414" x2="11391" y2="4914"/>
   <line class="fil4 str0" x1="11601" y1="4591" x2="11601" y2="5091"/>
   <line class="fil4 str0" x1="11808" y1="4742" x2="11808" y2="5242"/>
   <line class="fil4 str0" x1="11859" y1="4685" x2="11859" y2="5185"/>
   <line class="fil4 str0" x1="11979" y1="4933" x2="11979" y2="5433"/>
   <line class="fil4 str0" x1="12107" y1="5155" x2="12107" y2="5655"/>
   <line class="fil4 str0" x1="12186" y1="5899" x2="12212" y2="5651"/>
   <line class="fil4 str0" x1="12186" y1="5399" x2="12180" y2="5931"/>
  </g>
  <g id="_2898327126592">
   <path class="fil1 str0" d="M6229 9183c687,557 1694,451 2250,-236 557,-686 451,-1694 -236,-2250l-388 -315c686,556 792,1564 236,2251 -556,686 -1564,792 -2251,236l389 314z"/>
   <ellipse class="fil2 str0" transform="matrix(1.31744 1.06726 1.14771 -1.41675 6847.62 7625.38)" rx="944" ry="878"/>
   <path class="fil3 str1" d="M5691 8217c41,81 91,157 148,228l57 -45c52,64 112,125 180,179 0,1 1,1 2,2l-46 57c71,57 147,107 229,148l33 -65c77,39 158,69 240,91l-19 72c88,24 178,38 269,43l4 -76c85,4 171,-1 255,-15l13 77c89,-14 178,-37 262,-70l-28 -74c79,-30 155,-69 227,-116l44 67c76,-49 147,-107 211,-171l-57 -57c29,-30 57,-61 84,-94 27,-34 52,-69 76,-104l68 44c50,-76 91,-157 124,-242l-76 -29c30,-81 52,-163 66,-247l80 13c14,-90 19,-181 14,-271l-81 4c-4,-86 -17,-170 -39,-253l77 -20c-24,-88 -57,-173 -98,-254l-70 35c-38,-75 -84,-148 -139,-215l60 -49c-57,-71 -122,-135 -192,-192l-49 59c-1,0 -1,-1 -2,-2 -67,-54 -138,-100 -212,-138l34 -68c-81,-41 -166,-74 -254,-98l-20 73c-83,-22 -168,-36 -253,-40l4 -76c-91,-5 -182,0 -272,14l12 75c-84,13 -167,35 -247,66l-28 -71c-85,32 -166,74 -242,123l41 63c-71,46 -137,100 -199,161l-53 -53c-65,64 -122,135 -171,211l62 41c-47,73 -86,149 -116,228l-70 -27c-32,85 -56,173 -70,263l73 12c-14,85 -18,171 -14,256l-73 4c5,91 19,181 43,269l70 -19c22,82 53,163 92,240l-64 33z"/>
   <path class="fil1" d="M5691 8217c41,81 91,157 148,228l57 -45c52,64 112,125 180,179 0,1 1,1 2,2l-46 57c71,57 147,107 229,148l31 -62 -8 -10 -56 46c-57,-71 -107,-147 -149,-229l65 -32c-40,-77 -70,-158 -92,-240l-70 18c-24,-88 -39,-178 -43,-269l73 -3c-5,-86 0,-172 13,-257l-72 -11c14,-90 37,-178 70,-263l69 27c30,-79 69,-155 117,-228l-63 -41c50,-76 107,-147 171,-211l53 53c62,-61 129,-115 200,-161l-42 -63c77,-50 158,-91 243,-123l27 70c80,-30 163,-52 248,-65l-12 -75c90,-14 181,-19 272,-14l-4 76c85,4 170,18 253,40l19 -73c88,23 174,56 255,98l-35 68 10 5 57 -47c-57,-71 -122,-135 -192,-192l-49 59c-1,0 -1,-1 -2,-2 -67,-54 -138,-100 -212,-138l34 -68c-81,-41 -166,-74 -254,-98l-20 73c-83,-22 -168,-36 -253,-40l4 -76c-91,-5 -182,0 -272,14l12 75c-84,13 -167,35 -247,66l-28 -71c-85,32 -166,74 -242,123l41 63c-71,46 -137,100 -199,161l-53 -53c-65,64 -122,135 -171,211l62 41c-47,73 -86,149 -116,228l-70 -27c-32,85 -56,173 -70,263l73 12c-14,85 -18,171 -14,256l-73 4c5,91 19,181 43,269l70 -19c22,82 53,163 92,240l-64 33z"/>
   <line class="fil4 str0" x1="5634" y1="7159" x2="6023" y2="7474"/>
   <line class="fil4 str0" x1="5564" y1="7422" x2="5953" y2="7737"/>
   <line class="fil4 str0" x1="5550" y1="7694" x2="5939" y2="8008"/>
   <line class="fil4 str0" x1="5593" y1="7963" x2="5982" y2="8277"/>
   <line class="fil4 str0" x1="5691" y1="8217" x2="6079" y2="8531"/>
   <line class="fil4 str0" x1="5839" y1="8445" x2="6228" y2="8760"/>
   <line class="fil4 str0" x1="5704" y1="7186" x2="6092" y2="7501"/>
   <line class="fil4 str0" x1="5820" y1="6958" x2="6209" y2="7273"/>
   <line class="fil4 str0" x1="5982" y1="6759" x2="6370" y2="7074"/>
   <line class="fil4 str0" x1="6181" y1="6598" x2="6570" y2="6913"/>
   <line class="fil4 str0" x1="6140" y1="6535" x2="6528" y2="6850"/>
   <line class="fil4 str0" x1="6410" y1="6483" x2="6798" y2="6797"/>
   <line class="fil4 str0" x1="6657" y1="6417" x2="7046" y2="6732"/>
   <line class="fil4 str0" x1="6645" y1="6342" x2="7034" y2="6657"/>
   <line class="fil4 str0" x1="6913" y1="6404" x2="7302" y2="6719"/>
   <line class="fil4 str0" x1="7166" y1="6444" x2="7555" y2="6759"/>
   <line class="fil4 str0" x1="7794" y1="6852" x2="7618" y2="6675"/>
   <line class="fil4 str0" x1="7406" y1="6537" x2="7815" y2="6877"/>
  </g>
  <g id="_2898327120800">
   <path class="fil1 str0" d="M6597 13548c864,-183 1416,-1033 1233,-1897 -184,-865 -1033,-1417 -1898,-1233l-489 104c865,-184 1714,368 1897,1233 184,864 -368,1714 -1232,1897l489 -104z"/>
   <ellipse class="fil2 str0" transform="matrix(1.65855 -0.352001 -0.378536 -1.78357 5775.33 12086.9)" rx="944" ry="878"/>
   <path class="fil3 str1" d="M5507 13358c89,19 180,28 271,28l0 -72c83,0 168,-9 252,-27 2,0 3,0 4,-1l15 72c89,-19 176,-47 259,-84l-30 -67c79,-36 154,-79 222,-130l44 61c74,-54 142,-115 203,-182l-57 -51c57,-64 107,-134 150,-208l67 39c46,-79 83,-162 111,-248l-75 -25c26,-80 43,-164 52,-250l80 9c10,-91 10,-182 0,-272l-81 8c-4,-41 -11,-82 -20,-124 -9,-42 -20,-84 -33,-125l78 -25c-28,-86 -65,-170 -111,-248l-70 40c-43,-74 -94,-143 -150,-206l60 -54c-61,-68 -128,-129 -202,-182l-48 65c-69,-50 -143,-93 -221,-128l33 -73c-83,-37 -170,-65 -259,-84l-16 77c-83,-18 -168,-27 -255,-27l0 -78c-91,0 -182,10 -271,28l16 76c-1,0 -2,0 -3,0 -85,18 -165,45 -241,78l-31 -69c-84,36 -163,82 -236,135l44 62c-70,50 -133,108 -191,171l-56 -51c-61,68 -115,142 -160,220l65 38c-42,74 -78,152 -104,234l-72 -23c-29,86 -48,175 -57,266l75 7c-9,84 -10,170 0,256l-76 8c10,91 29,180 57,266l71 -23c27,83 62,161 104,234l-65 37c46,79 100,153 160,220l55 -49c58,64 122,122 191,172l-43 59c73,54 152,99 236,136l29 -66c78,35 160,61 245,79l-15 71z"/>
   <path class="fil1" d="M5507 13358c89,19 180,28 271,28l0 -72c83,0 168,-9 252,-27 2,0 3,0 4,-1l15 72c89,-19 176,-47 259,-84l-28 -64 -13 0 0 72c-91,0 -182,-9 -271,-28l15 -70c-85,-18 -167,-45 -245,-80l-29 66c-83,-37 -162,-82 -236,-136l43 -59c-69,-50 -133,-108 -191,-172l-54 50c-61,-68 -115,-142 -160,-220l64 -37c-42,-74 -77,-152 -104,-235l-71 23c-28,-86 -47,-175 -56,-265l75 -8c-9,-87 -9,-173 0,-256l-75 -8c9,-91 28,-180 57,-266l72 23c26,-81 62,-160 105,-234l-66 -38c45,-78 99,-152 160,-219l57 50c57,-63 121,-120 190,-171l-44 -61c73,-54 153,-99 236,-136l31 69 10 -4 0 -74c-91,0 -182,10 -271,28l16 76c-1,0 -2,0 -3,0 -85,18 -165,45 -241,78l-31 -69c-84,36 -163,82 -236,135l44 62c-70,50 -133,108 -191,171l-56 -51c-61,68 -115,142 -160,220l65 38c-42,74 -78,152 -104,234l-72 -23c-29,86 -48,175 -57,266l75 7c-9,84 -10,170 0,256l-76 8c10,91 29,180 57,266l71 -23c27,83 62,161 104,234l-65 37c46,79 100,153 160,220l55 -49c58,64 122,122 191,172l-43 59c73,54 152,99 236,136l29 -66c78,35 160,61 245,79l-15 71z"/>
   <line class="fil4 str0" x1="4649" y1="12736" x2="5139" y2="12633"/>
   <line class="fil4 str0" x1="4809" y1="12956" x2="5299" y2="12853"/>
   <line class="fil4 str0" x1="5012" y1="13138" x2="5501" y2="13034"/>
   <line class="fil4 str0" x1="5248" y1="13274" x2="5737" y2="13170"/>
   <line class="fil4 str0" x1="5507" y1="13358" x2="5996" y2="13254"/>
   <line class="fil4 str0" x1="5778" y1="13386" x2="6267" y2="13282"/>
   <line class="fil4 str0" x1="4714" y1="12699" x2="5203" y2="12596"/>
   <line class="fil4 str0" x1="4610" y1="12465" x2="5099" y2="12361"/>
   <line class="fil4 str0" x1="4558" y1="12214" x2="5047" y2="12111"/>
   <line class="fil4 str0" x1="4558" y1="11958" x2="5047" y2="11855"/>
   <line class="fil4 str0" x1="4483" y1="11951" x2="4972" y2="11847"/>
   <line class="fil4 str0" x1="4612" y1="11708" x2="5101" y2="11604"/>
   <line class="fil4 str0" x1="4716" y1="11474" x2="5206" y2="11370"/>
   <line class="fil4 str0" x1="4651" y1="11436" x2="5140" y2="11332"/>
   <line class="fil4 str0" x1="4867" y1="11267" x2="5357" y2="11163"/>
   <line class="fil4 str0" x1="5058" y1="11096" x2="5547" y2="10992"/>
   <line class="fil4 str0" x1="5770" y1="10864" x2="5522" y2="10890"/>
   <line class="fil4 str0" x1="5281" y1="10968" x2="5803" y2="10864"/>
  </g>
  <g id="_2898327186624">
   <path class="fil1 str0" d="M10261 16016c395,-790 75,-1751 -716,-2146 -790,-395 -1751,-75 -2146,716l-224 447c395,-791 1356,-1111 2147,-716 790,395 1111,1356 716,2146l223 -447z"/>
   <ellipse class="fil2 str0" transform="matrix(0.757855 -1.51669 -1.63102 -0.814983 8606.68 15748.1)" rx="944" ry="878"/>
   <path class="fil3 str1" d="M9434 16750c70,-58 134,-123 191,-194l-57 -45c52,-66 98,-137 137,-215 0,-1 0,-2 1,-3l65 33c41,-81 73,-167 96,-255l-71 -19c21,-84 34,-169 37,-254l75 3c4,-90 -2,-182 -16,-271l-76 12c-14,-84 -38,-167 -69,-246l72 -29c-33,-85 -75,-166 -125,-241l-66 43c-47,-70 -101,-136 -162,-196l56 -58c-65,-63 -136,-120 -213,-169l-43 69c-35,-23 -72,-43 -110,-62 -39,-20 -78,-37 -119,-52l29 -77c-85,-31 -173,-54 -263,-68l-12 81c-85,-13 -170,-16 -255,-11l-5 -82c-90,6 -180,21 -268,46l22 77c-83,23 -162,54 -238,93l-37 -71c-81,42 -157,93 -227,151l50 60c-66,54 -126,115 -180,182l-61 -48c-57,71 -106,148 -147,230l69 34c0,1 -1,2 -1,3 -39,77 -68,157 -90,237l-73 -19c-23,88 -37,178 -41,269l76 4c-4,86 1,172 15,256l-75 12c15,90 39,178 72,263l71 -28c31,79 70,156 117,227l-63 42c50,76 108,147 173,210l53 -54c60,60 127,113 200,160l-41 64c77,49 158,89 243,121l27 -70c81,31 164,52 248,65l-12 73c90,14 181,18 272,12l-4 -73c86,-5 171,-20 253,-42l19 70c88,-24 173,-58 254,-100l-34 -64c76,-39 148,-87 215,-142l46 56z"/>
   <path class="fil1" d="M9434 16750c70,-58 134,-123 191,-194l-57 -45c52,-66 98,-137 137,-215 0,-1 0,-2 1,-3l65 33c41,-81 73,-167 96,-255l-67 -18 -8 10 56 45c-57,72 -121,137 -191,195l-46 -56c-66,55 -138,102 -214,142l33 64c-81,42 -165,76 -253,100l-20 -71c-82,23 -167,37 -253,42l5 74c-91,6 -182,2 -272,-12l11 -73c-83,-13 -166,-34 -248,-65l-26 70c-85,-32 -167,-73 -243,-121l40 -64c-73,-47 -140,-101 -200,-160l-53 54c-64,-64 -122,-134 -172,-210l63 -42c-47,-72 -87,-148 -118,-228l-70 28c-34,-84 -58,-172 -73,-262l75 -13c-14,-84 -19,-170 -15,-256l-76 -3c5,-91 18,-181 41,-269l74 19 3 -11 -58 -46c-57,71 -106,148 -147,230l69 34c0,1 -1,2 -1,3 -39,77 -68,157 -90,237l-73 -19c-23,88 -37,178 -41,269l76 4c-4,86 1,172 15,256l-75 12c15,90 39,178 72,263l71 -28c31,79 70,156 117,227l-63 42c50,76 108,147 173,210l53 -54c60,60 127,113 200,160l-41 64c77,49 158,89 243,121l27 -70c81,31 164,52 248,65l-12 73c90,14 181,18 272,12l-4 -73c86,-5 171,-20 253,-42l19 70c88,-24 173,-58 254,-100l-34 -64c76,-39 148,-87 215,-142l46 56z"/>
   <line class="fil4 str0" x1="8413" y1="17033" x2="8637" y2="16586"/>
   <line class="fil4 str0" x1="8685" y1="17045" x2="8909" y2="16598"/>
   <line class="fil4 str0" x1="8953" y1="17000" x2="9177" y2="16553"/>
   <line class="fil4 str0" x1="9207" y1="16900" x2="9430" y2="16453"/>
   <line class="fil4 str0" x1="9434" y1="16750" x2="9657" y2="16303"/>
   <line class="fil4 str0" x1="9625" y1="16556" x2="9848" y2="16108"/>
   <line class="fil4 str0" x1="8425" y1="16960" x2="8648" y2="16513"/>
   <line class="fil4 str0" x1="8177" y1="16895" x2="8400" y2="16448"/>
   <line class="fil4 str0" x1="7948" y1="16780" x2="8171" y2="16333"/>
   <line class="fil4 str0" x1="7748" y1="16620" x2="7971" y2="16173"/>
   <line class="fil4 str0" x1="7695" y1="16674" x2="7918" y2="16227"/>
   <line class="fil4 str0" x1="7585" y1="16422" x2="7809" y2="15975"/>
   <line class="fil4 str0" x1="7468" y1="16195" x2="7691" y2="15747"/>
   <line class="fil4 str0" x1="7397" y1="16223" x2="7621" y2="15775"/>
   <line class="fil4 str0" x1="7400" y1="15948" x2="7623" y2="15500"/>
   <line class="fil4 str0" x1="7385" y1="15692" x2="7608" y2="15244"/>
   <line class="fil4 str0" x1="7647" y1="14991" x2="7513" y2="15201"/>
   <line class="fil4 str0" x1="7423" y1="15438" x2="7667" y2="14965"/>
  </g>
  <g id="_2898327196704">
   <path class="fil1 str0" d="M14579 14586c-395,-791 -1356,-1111 -2146,-716 -791,395 -1111,1356 -716,2146l223 447c-395,-790 -74,-1751 716,-2146 791,-395 1752,-75 2147,716l-224 -447z"/>
   <ellipse class="fil2 str0" transform="matrix(-0.757863 -1.51668 -1.63101 0.814992 13371.4 15748.1)" rx="944" ry="878"/>
   <path class="fil3 str1" d="M14669 15688c-4,-91 -18,-181 -41,-269l-70 18c-21,-81 -50,-160 -89,-238 -1,-1 -1,-2 -2,-3l66 -32c-41,-82 -90,-159 -147,-230l-57 46c-55,-68 -115,-129 -181,-183l47 -57c-70,-58 -146,-109 -227,-151l-35 68c-76,-39 -156,-70 -239,-92l21 -75c-88,-25 -178,-40 -268,-46l-5 80c-85,-5 -170,-1 -255,12l-12 -80c-90,14 -178,37 -263,68l28 77c-38,14 -77,31 -115,50 -39,20 -76,41 -112,64l-44 -69c-77,49 -148,106 -213,169l57 59c-61,60 -115,126 -162,196l-67 -44c-50,75 -92,156 -125,241l75 30c-32,79 -55,162 -69,246l-79 -13c-14,89 -20,180 -16,271l79 -3c3,85 16,169 37,253l-75 20c23,88 55,173 96,255l69 -34c0,0 1,1 1,2 39,78 84,149 136,214l-60 48c57,71 121,136 191,194l49 -59c66,55 138,103 213,142l-35 67c81,42 166,76 254,100l20 -73c82,23 167,37 252,43l-4 75c91,6 182,2 272,-12l-12 -74c84,-13 167,-34 248,-64l27 70c85,-32 166,-72 243,-121l-41 -63c74,-47 141,-101 201,-160l52 53c65,-63 123,-134 173,-210l-62 -40c48,-72 88,-149 119,-228l68 27c33,-85 57,-173 72,-263l-72 -12c15,-84 20,-170 16,-257l72 -3z"/>
   <path class="fil1" d="M14669 15688c-4,-91 -18,-181 -41,-269l-70 18c-21,-81 -50,-160 -89,-238 -1,-1 -1,-2 -2,-3l66 -32c-41,-82 -90,-159 -147,-230l-54 43 3 13 70 -18c23,88 37,178 41,269l-72 3c3,87 -2,173 -16,257l72 12c-15,90 -39,178 -73,262l-68 -26c-31,79 -71,155 -118,227l61 41c-50,76 -107,146 -172,210l-52 -53c-60,59 -128,113 -201,159l40 64c-76,49 -158,89 -243,121l-26 -71c-82,31 -165,52 -248,65l11 74c-90,14 -181,18 -272,12l5 -76c-86,-5 -170,-19 -253,-42l-20 73c-87,-24 -172,-58 -253,-100l35 -67c-76,-40 -147,-87 -214,-142l-48 59c-70,-58 -134,-123 -191,-195l60 -47 -7 -9 -72 19c23,88 55,173 96,255l69 -34c0,0 1,1 1,2 39,78 84,149 136,214l-60 48c57,71 121,136 191,194l49 -59c66,55 138,103 213,142l-35 67c81,42 166,76 254,100l20 -73c82,23 167,37 252,43l-4 75c91,6 182,2 272,-12l-12 -74c84,-13 167,-34 248,-64l27 70c85,-32 166,-72 243,-121l-41 -63c74,-47 141,-101 201,-160l52 53c65,-63 123,-134 173,-210l-62 -40c48,-72 88,-149 119,-228l68 27c33,-85 57,-173 72,-263l-72 -12c15,-84 20,-170 16,-257l72 -3z"/>
   <line class="fil4 str0" x1="14283" y1="16674" x2="14060" y2="16227"/>
   <line class="fil4 str0" x1="14456" y1="16464" x2="14232" y2="16017"/>
   <line class="fil4 str0" x1="14581" y1="16223" x2="14357" y2="15775"/>
   <line class="fil4 str0" x1="14653" y1="15960" x2="14430" y2="15513"/>
   <line class="fil4 str0" x1="14669" y1="15688" x2="14446" y2="15241"/>
   <line class="fil4 str0" x1="14628" y1="15419" x2="14405" y2="14972"/>
   <line class="fil4 str0" x1="14231" y1="16621" x2="14008" y2="16174"/>
   <line class="fil4 str0" x1="14030" y1="16781" x2="13807" y2="16333"/>
   <line class="fil4 str0" x1="13801" y1="16895" x2="13578" y2="16447"/>
   <line class="fil4 str0" x1="13553" y1="16959" x2="13330" y2="16512"/>
   <line class="fil4 str0" x1="13565" y1="17033" x2="13341" y2="16586"/>
   <line class="fil4 str0" x1="13297" y1="16970" x2="13074" y2="16522"/>
   <line class="fil4 str0" x1="13045" y1="16927" x2="12821" y2="16480"/>
   <line class="fil4 str0" x1="13025" y1="17000" x2="12801" y2="16553"/>
   <line class="fil4 str0" x1="12806" y1="16833" x2="12583" y2="16386"/>
   <line class="fil4 str0" x1="12593" y1="16691" x2="12369" y2="16244"/>
   <line class="fil4 str0" x1="12190" y1="16061" x2="12277" y2="16294"/>
   <line class="fil4 str0" x1="12413" y1="16508" x2="12181" y2="16029"/>
  </g>
  <g id="_2898327192800">
   <path class="fil1 str0" d="M16046 10418c-865,-184 -1714,368 -1898,1233 -183,864 369,1714 1233,1897l490 104c-865,-183 -1417,-1033 -1233,-1897 183,-865 1032,-1417 1897,-1233l-489 -104z"/>
   <ellipse class="fil2 str0" transform="matrix(-1.65855 -0.35198 -0.378513 1.78358 16202.7 12086.8)" rx="944" ry="878"/>
   <path class="fil3 str1" d="M16964 11034c-73,-53 -152,-99 -236,-136l-29 66c-76,-33 -157,-60 -242,-78 -1,0 -2,0 -3,0l15 -72c-89,-19 -180,-28 -271,-28l0 73c-87,1 -172,10 -255,28l-16 -73c-89,19 -176,47 -259,84l31 70c-78,35 -152,78 -221,129l-46 -63c-73,53 -141,114 -202,182l59 53c-57,63 -107,132 -150,207l-69 -40c-46,78 -83,162 -111,248l78 25c-13,40 -24,80 -33,121 -9,43 -15,86 -20,128l-81 -8c-10,90 -10,181 0,272l81 -9c9,86 27,169 53,250l-77 25c28,86 65,169 111,248l70 -40c42,74 93,143 150,207l-60 53c61,67 129,128 203,182l46 -64c69,50 143,94 222,129l-32 71c83,37 170,65 259,84l16 -76c1,1 2,1 3,1 85,18 169,27 252,27l0 76c91,0 182,-9 271,-28l-16 -74c85,-18 167,-45 244,-79l31 69c84,-37 163,-83 236,-136l-44 -61c69,-50 133,-108 190,-171l57 50c61,-67 114,-141 160,-220l-66 -37c42,-73 78,-151 104,-234l72 23c28,-86 47,-175 57,-266l-75 -8c9,-86 9,-172 1,-256l73 -8c-9,-90 -28,-179 -56,-265l-71 22c-26,-82 -61,-160 -104,-234l63 -37c-45,-78 -99,-152 -160,-220l-54 49c-57,-64 -121,-121 -191,-172l42 -59z"/>
   <path class="fil1" d="M16964 11034c-73,-53 -152,-99 -236,-136l-29 66c-76,-33 -157,-60 -242,-78 -1,0 -2,0 -3,0l15 -72c-89,-19 -180,-28 -271,-28l0 70 12 5 29 -66c83,37 163,82 236,136l-42 58c70,51 134,109 191,172l54 -48c61,67 115,141 160,219l-63 37c43,74 78,153 104,235l70 -23c29,86 48,175 57,266l-74 7c9,84 9,170 0,257l75 8c-10,90 -29,179 -57,265l-72 -23c-27,83 -62,161 -104,234l65 38c-45,78 -99,152 -159,219l-57 -50c-57,64 -121,121 -191,171l45 61c-73,54 -153,99 -236,136l-31 -69c-78,34 -159,61 -244,79l16 74c-89,19 -180,28 -271,28l0 -76 -11 0 -30 68c83,37 170,65 259,84l16 -76c1,1 2,1 3,1 85,18 169,27 252,27l0 76c91,0 182,-9 271,-28l-16 -74c85,-18 167,-45 244,-79l31 69c84,-37 163,-83 236,-136l-44 -61c69,-50 133,-108 190,-171l57 50c61,-67 114,-141 160,-220l-66 -37c42,-73 78,-151 104,-234l72 23c28,-86 47,-175 57,-266l-75 -8c9,-86 9,-172 1,-256l73 -8c-9,-90 -28,-179 -56,-265l-71 22c-26,-82 -61,-160 -104,-234l63 -37c-45,-78 -99,-152 -160,-220l-54 49c-57,-64 -121,-121 -191,-172l42 -59z"/>
   <line class="fil4 str0" x1="17495" y1="11950" x2="17006" y2="11847"/>
   <line class="fil4 str0" x1="17439" y1="11685" x2="16949" y2="11581"/>
   <line class="fil4 str0" x1="17327" y1="11436" x2="16838" y2="11332"/>
   <line class="fil4 str0" x1="17167" y1="11216" x2="16678" y2="11113"/>
   <line class="fil4 str0" x1="16964" y1="11034" x2="16475" y2="10931"/>
   <line class="fil4 str0" x1="16728" y1="10898" x2="16239" y2="10795"/>
   <line class="fil4 str0" x1="17422" y1="11958" x2="16932" y2="11854"/>
   <line class="fil4 str0" x1="17421" y1="12214" x2="16932" y2="12111"/>
   <line class="fil4 str0" x1="17367" y1="12465" x2="16878" y2="12361"/>
   <line class="fil4 str0" x1="17263" y1="12699" x2="16774" y2="12595"/>
   <line class="fil4 str0" x1="17329" y1="12736" x2="16839" y2="12633"/>
   <line class="fil4 str0" x1="17112" y1="12906" x2="16623" y2="12802"/>
   <line class="fil4 str0" x1="16922" y1="13077" x2="16432" y2="12973"/>
   <line class="fil4 str0" x1="16966" y1="13138" x2="16477" y2="13034"/>
   <line class="fil4 str0" x1="16699" y1="13205" x2="16210" y2="13101"/>
   <line class="fil4 str0" x1="16455" y1="13284" x2="15966" y2="13180"/>
   <line class="fil4 str0" x1="15711" y1="13206" x2="15948" y2="13283"/>
   <line class="fil4 str0" x1="16200" y1="13310" x2="15681" y2="13193"/>
  </g>
  <g id="_2898325004960">
   <path class="fil1 str0" d="M13735 6697c-687,556 -793,1564 -236,2250 556,687 1563,793 2250,236l389 -314c-687,556 -1695,450 -2251,-236 -556,-687 -450,-1695 236,-2251l-388 315z"/>
   <ellipse class="fil2 str0" transform="matrix(-1.31744 1.06726 1.14772 1.41675 15130.4 7625.37)" rx="944" ry="878"/>
   <path class="fil3 str1" d="M14792 6371c-88,24 -173,57 -254,98l33 64c-75,38 -146,85 -213,139 -1,1 -2,2 -3,2l-46 -57c-70,58 -135,122 -192,193l57 46c-55,68 -101,141 -139,216l-67 -33c-41,81 -74,166 -98,254l74 19c-22,83 -35,168 -39,253l-78 -3c-4,90 0,181 14,271l79 -12c13,83 35,166 66,246l-75 29c33,85 74,166 124,242l68 -44c23,34 47,68 74,101 27,34 56,66 87,96l-58 58c64,64 135,122 211,171l45 -68c72,47 148,85 227,116l-29 75c85,33 173,56 262,70l13 -79c84,13 170,18 255,14l4 79c91,-5 181,-19 269,-43l-20 -76c82,-21 162,-52 239,-91l35 69c82,-41 158,-91 229,-148l-49 -60c1,-1 2,-1 3,-2 67,-54 127,-114 179,-179l60 48c57,-71 107,-147 148,-228l-67 -35c39,-76 70,-157 92,-239l73 20c24,-88 38,-178 43,-269l-76 -4c5,-85 0,-171 -13,-256l75 -12c-14,-90 -38,-178 -70,-263l-71 28c-30,-79 -68,-156 -116,-229l64 -41c-50,-76 -107,-147 -171,-211l-54 53c-61,-62 -128,-116 -198,-162l40 -62c-76,-49 -157,-91 -242,-123l-27 69c-80,-31 -163,-53 -248,-67l12 -72c-90,-14 -181,-19 -272,-14l4 73c-86,4 -171,17 -254,40l-19 -70z"/>
   <path class="fil1" d="M14792 6371c-88,24 -173,57 -254,98l33 64c-75,38 -146,85 -213,139 -1,1 -2,2 -3,2l-46 -57c-70,58 -135,122 -192,193l54 44 11 -6 -33 -64c81,-42 167,-75 255,-98l18 70c84,-23 169,-36 254,-41l-3 -72c90,-5 181,0 271,14l-11 72c84,13 167,36 248,66l26 -68c85,32 166,73 243,123l-41 62c71,46 138,100 199,162l53 -53c64,64 122,135 171,211l-63 41c47,73 86,150 116,228l70 -27c33,85 56,173 71,263l-75 12c13,85 17,170 13,256l75 4c-4,90 -19,180 -42,268l-74 -19c-22,82 -53,162 -92,239l68 34c-42,82 -91,158 -149,229l-59 -48 -7 8 33 66c82,-41 158,-91 229,-148l-49 -60c1,-1 2,-1 3,-2 67,-54 127,-114 179,-179l60 48c57,-71 107,-147 148,-228l-67 -35c39,-76 70,-157 92,-239l73 20c24,-88 38,-178 43,-269l-76 -4c5,-85 0,-171 -13,-256l75 -12c-14,-90 -38,-178 -70,-263l-71 28c-30,-79 -68,-156 -116,-229l64 -41c-50,-76 -107,-147 -171,-211l-54 53c-61,-62 -128,-116 -198,-162l40 -62c-76,-49 -157,-91 -242,-123l-27 69c-80,-31 -163,-53 -248,-67l12 -72c-90,-14 -181,-19 -272,-14l4 73c-86,4 -171,17 -254,40l-19 -70z"/>
   <line class="fil4 str0" x1="15838" y1="6535" x2="15450" y2="6850"/>
   <line class="fil4 str0" x1="15596" y1="6412" x2="15207" y2="6727"/>
   <line class="fil4 str0" x1="15333" y1="6342" x2="14944" y2="6657"/>
   <line class="fil4 str0" x1="15061" y1="6328" x2="14673" y2="6643"/>
   <line class="fil4 str0" x1="14792" y1="6371" x2="14404" y2="6686"/>
   <line class="fil4 str0" x1="14538" y1="6469" x2="14149" y2="6784"/>
   <line class="fil4 str0" x1="15798" y1="6597" x2="15409" y2="6912"/>
   <line class="fil4 str0" x1="15996" y1="6759" x2="15608" y2="7074"/>
   <line class="fil4 str0" x1="16157" y1="6958" x2="15769" y2="7273"/>
   <line class="fil4 str0" x1="16273" y1="7187" x2="15885" y2="7501"/>
   <line class="fil4 str0" x1="16344" y1="7159" x2="15955" y2="7474"/>
   <line class="fil4 str0" x1="16339" y1="7434" x2="15951" y2="7749"/>
   <line class="fil4 str0" x1="16352" y1="7690" x2="15964" y2="8005"/>
   <line class="fil4 str0" x1="16428" y1="7694" x2="16039" y2="8009"/>
   <line class="fil4 str0" x1="16312" y1="7943" x2="15923" y2="8258"/>
   <line class="fil4 str0" x1="16220" y1="8182" x2="15831" y2="8497"/>
   <line class="fil4 str0" x1="15691" y1="8712" x2="15900" y2="8576"/>
   <line class="fil4 str0" x1="16079" y1="8397" x2="15662" y2="8727"/>
  </g>
  <rect class="fil4" x="1489" y="1480" width="19000" height="19000"/>
  <circle class="fil0 str2" cx="9030" cy="11396" r="379"/>
  <circle class="fil5 str2" cx="10989" cy="10980" r="1087"/>
  <circle class="fil0 str3" cx="9560" cy="9822" r="150"/>
  <polygon class="fil5 str2" points="10989,9847 11485,10130 11980,10414 11980,10980 11980,11547 11485,11831 10989,12114 10494,11831 9998,11547 9998,10980 9998,10414 10494,10130 "/>
  <path class="fil4 str4" d="M9490 9816c477,-70 414,1096 508,1164"/>
  <circle class="fil0 str2" cx="9053" cy="11391" r="379"/>
  <path class="fil6 str0" d="M3831 5359l-176 247 1383 983c55,39 62,86 23,141l-119 168c-39,55 -86,63 -141,24l-1382 -983 -176 247c-39,55 -85,63 -140,24l-168 -119c-54,-39 -63,-86 -24,-141l588 -827c39,-55 86,-62 141,-23l168 119c55,39 62,85 23,140zm2496 -10l-150 142c-48,46 -96,45 -142,-4l-550 -576 -334 318 550 577c46,49 45,96 -3,142l-150 143c-48,46 -95,45 -142,-4l-1382 -1449c-46,-49 -45,-96 3,-142l150 -143c48,-46 96,-45 142,4l550 577 334 -319 -550 -577c-46,-48 -45,-96 3,-142l150 -143c48,-46 95,-44 141,5l1382 1449c47,49 46,96 -2,142zm1038 -710l-483 310c-89,57 -186,75 -291,52 -105,-23 -186,-79 -244,-169l-926 -1445c-36,-56 -26,-103 31,-139l717 -460c56,-36 103,-26 139,31l111 173c36,56 26,102 -31,139l-459 294 265 413 384 -246c56,-36 103,-26 139,31l112 174c36,56 26,103 -31,139l-384 246 265 413 467 -299c57,-36 103,-25 139,31l111 173c36,56 26,103 -31,139zm1966 -2940l223 2019c5,56 -18,92 -71,107l-239 68c-54,15 -93,-2 -117,-50l-407 -792 70 887c3,55 -21,89 -73,104l-239 68c-54,15 -94,-2 -118,-53l-868 -1835c-14,-28 -14,-56 -1,-85 12,-29 33,-48 64,-56l202 -58c56,-16 96,3 120,56l432 959 -87 -1062c-4,-55 20,-90 74,-106l166 -47c52,-15 91,3 116,52l484 951 -137 -1045c-8,-57 16,-94 73,-110l205 -58c28,-8 57,-3 84,14 24,17 39,40 44,72zm1787 1901l-91 -407 -427 11 -71 411c-10,55 -42,83 -97,84l-209 5c-33,1 -59,-10 -80,-34 -21,-23 -29,-51 -23,-84l351 -2011c8,-55 40,-83 96,-84l406 -11c55,-1 89,25 102,79l450 1992c7,32 0,61 -19,84 -20,25 -45,38 -76,39l-210 5c-56,2 -90,-25 -102,-79zm-183 -812l-149 -656 -115 663 264 -7zm1947 1120l-217 -38c-45,-8 -71,-35 -80,-80l-171 -877 -119 -21 -140 784c-12,67 -51,94 -117,82l-203 -37c-67,-11 -94,-50 -82,-117l352 -1971c12,-66 51,-93 117,-81l706 126c106,18 192,76 260,171 68,95 92,196 73,303l-86 481c-15,84 -55,156 -120,216 -65,60 -138,97 -220,112l163 829c7,36 -2,66 -26,90 -25,25 -56,35 -90,28zm-109 -1346l86 -483 -406 -73 -86 483 406 73zm2104 177l-282 -111 -622 1578c-25,63 -69,82 -131,57l-192 -75c-63,-25 -82,-69 -57,-132l622 -1578 -282 -111c-63,-24 -82,-67 -57,-129l76 -192c24,-63 68,-82 131,-57l943 372c63,24 82,68 57,131l-76 192c-24,62 -67,80 -130,55zm594 2450l-174 -111c-56,-37 -66,-83 -30,-140l430 -671 -388 -249 -430 671c-37,57 -83,67 -139,31l-175 -112c-56,-36 -65,-82 -29,-139l1081 -1685c36,-57 82,-67 138,-31l175 112c56,35 66,82 29,139l-430 670 389 249 430 -670c36,-57 83,-67 139,-31l174 111c56,36 65,83 29,139l-1080 1686c-37,56 -83,67 -139,31zm845 809l-320 -336c-75,-79 -111,-175 -109,-290 2,-114 42,-209 121,-284l1009 -962c78,-74 175,-109 290,-107 115,3 210,44 285,122l319 335c74,78 110,175 109,291 -2,116 -43,212 -121,286l-1007 961c-79,75 -176,110 -292,106 -115,-4 -210,-45 -284,-122zm295 -281l1006 -959 -320 -336 -1006 959 320 336zm586 1431l-237 -370c-58,-91 -75,-192 -52,-305 24,-112 81,-197 173,-256l1173 -752c90,-58 192,-74 306,-49 113,26 199,84 258,175l235 367c58,90 75,193 50,307 -24,114 -81,199 -172,257l-59 38c-56,36 -102,26 -138,-30l-111 -173c-36,-57 -26,-103 30,-139l59 -38 -238 -371 -1170 750 238 371 413 -265 -97 -150c-35,-56 -25,-102 32,-138l173 -112c57,-36 104,-26 139,30l262 408c36,56 25,103 -31,139l-672 431c-92,59 -195,76 -308,49 -112,-26 -198,-84 -256,-174z"/>
  <path class="fil6 str0" d="M6242 18385l-373 -266 -376 526c-40,55 -90,60 -150,17l-188 -134c-61,-44 -72,-93 -33,-148l1165 -1629c39,-54 89,-60 151,-16l652 467c97,69 160,164 188,285 28,121 11,225 -52,314l-373 520c-63,89 -157,140 -280,152 -123,12 -233,-18 -331,-88zm240 -328l374 -522 -377 -270 -373 523 376 269zm1383 1947l-228 -93c-47,-19 -70,-52 -72,-99l-19 -908 -125 -51 -301 738c-26,62 -73,79 -143,51l-214 -88c-70,-28 -92,-73 -66,-136l756 -1854c25,-62 73,-79 143,-51l742 303c112,46 195,124 251,235 55,111 63,217 21,317l-184 453c-32,79 -90,140 -171,183 -82,42 -169,60 -260,54l19 858c1,38 -14,66 -45,83 -32,18 -67,20 -104,5zm137 -1355l186 -455 -427 -174 -186 455 427 174zm1451 1745l-510 -97c-119,-23 -216,-83 -290,-179 -75,-96 -102,-197 -81,-304l261 -1370c21,-105 84,-189 188,-252 106,-63 218,-83 336,-61l509 98c118,22 215,82 291,180 76,97 103,199 83,306l-262 1366c-20,107 -83,192 -189,254 -107,62 -218,81 -336,59zm77 -400l261 -1365 -510 -98 -261 1366 510 97zm1776 515l-411 15c-122,4 -230,-32 -324,-109 -94,-78 -144,-171 -148,-279l-3 -79c-2,-67 34,-102 109,-105l231 -9c74,-2 113,30 115,97l3 77 414 -15 -63 -1695c-3,-67 33,-103 108,-105l232 -9c74,-3 113,30 115,97l63 1695c4,109 -39,206 -128,291 -89,84 -194,128 -313,133zm2045 -273l-631 121c-117,22 -224,4 -322,-54 -98,-59 -156,-140 -176,-245l-322 -1686c-13,-65 18,-106 92,-120l936 -179c74,-14 117,12 130,78l38 203c13,65 -18,105 -92,119l-600 114 93 483 501 -96c73,-14 117,12 130,78l38 203c13,66 -18,106 -92,120l-501 96 92 482 609 -116c75,-15 118,12 130,78l39 201c13,66 -18,106 -92,120zm1729 -718c-52,88 -130,152 -232,190l-453 172c-113,43 -226,43 -341,0 -113,-43 -190,-115 -229,-217l-494 -1302c-38,-101 -29,-206 28,-315 58,-108 142,-184 255,-227l451 -171c112,-43 227,-42 344,2 116,43 194,116 232,216l23 61c23,61 0,106 -71,133l-215 82c-70,26 -116,8 -140,-54l-23 -62 -458 174 494 1300 457 -174 -27 -72c-24,-63 -1,-108 68,-134l216 -82c70,-27 118,-8 141,55l28 72c42,110 24,228 -54,353zm752 -2442l-287 182 906 1434c36,57 23,105 -41,145l-195 123c-64,41 -114,32 -150,-25l-906 -1434 -286 182c-64,40 -114,32 -149,-24l-110 -175c-36,-56 -23,-105 41,-146l960 -606c64,-40 113,-31 149,25l110 175c36,56 22,104 -42,144z"/>
 </g>
</svg>