<?xml version="1.0" encoding="UTF-8"?>
<svg id="Lager_1" xmlns="http://www.w3.org/2000/svg" version="1.1" viewBox="255.5 375.4 101 42">
  <!-- Generator: Adobe Illustrator 29.6.1, SVG Export Plug-In . SVG Version: 2.1.1 Build 9)  -->
  <defs>
    <style>
      .st0 {
      fill: #ffffff;
      }
    </style>
  </defs>
  <polygon class="st0"
    points="287.78 378.41 283.57 378.41 283.57 392.45 280.76 392.45 280.76 378.41 276.55 378.41 276.55 375.6 287.78 375.6 287.78 378.41" />
  <path class="st0"
    d="M297.41,388.49v-8.93l-1.15-1.15h-3.31l-1.15,1.15v8.93l1.15,1.15h3.31l1.15-1.15ZM300.22,389.64l-2.92,2.81h-5.5l-2.81-2.81v-11.23l2.81-2.81h5.61l2.81,2.81v11.23Z" />
  <polygon class="st0"
    points="312.65 378.41 308.44 378.41 308.44 392.45 305.64 392.45 305.64 378.41 301.42 378.41 301.42 375.6 312.65 375.6 312.65 378.41" />
  <path class="st0"
    d="M318.61,386.83l-1.29-5.19-1.29,5.19h2.58ZM322.9,392.45h-2.89l-.7-2.81h-3.99l-.7,2.81h-2.89l4.07-16.85h3.03l4.07,16.85Z" />
  <polygon class="st0"
    points="335.45 392.45 324.22 392.45 324.22 375.6 327.03 375.6 327.03 389.64 335.45 389.64 335.45 392.45" />
  <polygon class="st0"
    points="266.9 408.67 263.98 411.48 258.48 411.48 255.67 408.67 255.67 397.44 258.48 394.64 264.1 394.64 266.9 397.44 266.9 398.85 264.1 398.85 264.1 398.59 262.95 397.44 259.63 397.44 258.48 398.59 258.48 407.52 259.63 408.67 262.95 408.67 264.1 407.52 264.1 407.27 266.9 407.27 266.9 408.67" />
  <path class="st0"
    d="M276.87,407.52v-8.93l-1.15-1.15h-3.31l-1.15,1.15v8.93l1.15,1.15h3.31l1.15-1.15ZM279.68,408.67l-2.92,2.81h-5.5l-2.81-2.81v-11.23l2.81-2.81h5.61l2.81,2.81v11.23Z" />
  <polygon class="st0"
    points="292.45 411.02 289.47 411.19 284.03 400.76 284.03 411.31 281.22 411.48 281.22 394.63 284.03 394.66 289.65 405.39 289.65 394.63 292.45 394.63 292.45 411.02" />
  <polygon class="st0"
    points="356.33 408.67 353.52 411.48 347.9 411.48 345.1 408.67 345.1 407.27 347.9 407.27 347.9 407.52 349.05 408.67 352.37 408.67 353.52 407.52 353.52 405.61 352.37 404.46 347.9 404.46 345.1 401.65 345.1 397.44 347.9 394.64 353.52 394.64 356.33 397.44 356.33 398.85 353.52 398.85 353.52 398.59 352.37 397.44 349.05 397.44 347.9 398.59 347.9 400.5 349.05 401.65 353.52 401.65 356.33 404.46 356.33 408.67" />
  <path class="st0"
    d="M308.39,405.88c.08.15.17.32.25.48.4.73.78,1.43.73,2.31.01.23.07.35.2.42v-4.62h2.39l.81,1.91c.35-1,.7-2.01,1.04-2.99.26-.76.54-1.53.8-2.3l-.58.58h-4.46v-4.21h4.46l1.15,1.15v.86c.37-1.06.75-2.11,1.14-3.15l.02-.06.27.08-.02.06c-.8,2.76-1.6,5.52-2.4,8.28l-.88,3.02,1.23,2.9c.48.13.97.23,1.5.24.57.04,1.14.06,1.71.09l-2.69-6.47,2.92-2.81v-4.21l-2.81-2.81h-8.42v9.38c.77.29,1.3.91,1.62,1.87Z" />
  <g>
    <path class="st0" d="M299.26,409.95l-1.05-3.63v4.02c.22-.08.44-.16.67-.24.13-.05.25-.09.38-.14Z" />
    <path class="st0"
      d="M295.32,396.33l.27-.08.02.06c.14.38.27.76.41,1.14h2.19v6.18c.61,1.75,1.23,3.54,1.87,5.3.16.35.53.38.94.33v-11.81h4.21v-2.81h-11.23v2.81h1.64l-.32-1.11Z" />
  </g>
  <path class="st0"
    d="M325.11,411.26c.95.03,1.91.07,2.86.11l2.8-2.69v-11.23l-2.81-2.81h-5.61l-2.81,2.81v11.23l2.46,2.47c1.04.04,2.08.08,3.1.12ZM322.35,398.59l1.15-1.15h3.31l1.15,1.15v8.93l-1.15,1.15h-3.31l-1.15-1.15v-8.93Z" />
  <polygon class="st0"
    points="335.13 408.67 335.13 394.63 332.32 394.63 332.32 411.48 343.55 411.48 343.55 408.67 335.13 408.67" />
  <path class="st0"
    d="M338.01,412.17h.09c-4.28-.41-8.7-.57-12.98-.73h-.02c-2.82-.1-6.02-.22-9.05-.42-1.1-.04-2.05-.39-3.06-.77-.14-.05-.29-.11-.44-.16l-.1-.04.03-.1,3.62-12.53c-.73,1.99-1.43,4-2.11,5.96l-.09.25c-.61,1.76-1.24,3.57-1.89,5.34-.28.59-.94.49-1.52.4-.28-.05-.52-.08-.71-.06-.4-.03-.59-.23-.61-.66.04-.84-.32-1.51-.71-2.22-.09-.17-.18-.33-.26-.49-.4-1.21-1.15-1.85-2.29-1.94-1.12.09-1.87.72-2.26,1.92-.09.17-.17.33-.25.48l-.02.03c-.39.71-.75,1.38-.71,2.21-.02.44-.2.64-.59.67-.22-.03-.49.02-.73.06-.59.09-1.25.19-1.52-.39-.68-1.87-1.33-3.75-1.96-5.57-.69-1.98-1.39-4.01-2.13-6.02l3.66,12.65-.1.04c-.15.05-.29.11-.44.16-1,.37-1.95.73-3.05.76-3.03.2-6.23.31-9.05.41h-.02c-4.29.16-8.71.32-12.99.73h.23c4.38,0,8.86-.18,13.2-.36l.43-.02c3.91-.16,7.95-.32,11.89-.36h.13s-.01.13-.01.13c-.12,1.32-1.47,1.24-2.55,1.17-.45-.03-.88-.05-1.21.01-1.29.03-2.62.05-3.69.06-1.28.02-2.6.03-3.92.06l10.53.33v.12c-.06.89.11,1.57.52,2.15l.02.03v.03c.05.73.16,1.34,1,1.37,2.36.33,2.9.16,4.66-.4.27-.08.56-.18.9-.28h.03s.03,0,.03,0c.33.1.63.2.9.28,1.76.56,2.3.73,4.65.4.84-.03.96-.64,1.01-1.37v-.03s.02-.03.02-.03c.41-.57.58-1.26.53-2.15v-.12s.11,0,.11,0l10.41-.33c-1.32-.03-2.63-.05-3.92-.06-1.07-.01-2.4-.03-3.67-.06-.34-.07-.77-.04-1.22-.02-1.09.06-2.43.14-2.55-1.17v-.13s.12,0,.12,0c3.94.04,7.98.2,11.89.36h.08c4.5.18,9.14.37,13.69.37Z" />
</svg>